<?xml version="1.0" encoding="UTF-8" standalone="no"?>
<!-- Created with Inkscape (http://www.inkscape.org/) -->

<svg
   width="160.5mm"
   height="92.512405mm"
   viewBox="0 0 160.5 92.512406"
   version="1.1"
   id="svg1"
   inkscape:version="1.3.2 (091e20e, 2023-11-25, custom)"
   sodipodi:docname="Non-uniform-Li-deposition-problems_schematic.svg"
   xmlns:inkscape="http://www.inkscape.org/namespaces/inkscape"
   xmlns:sodipodi="http://sodipodi.sourceforge.net/DTD/sodipodi-0.dtd"
   xmlns:xlink="http://www.w3.org/1999/xlink"
   xmlns="http://www.w3.org/2000/svg"
   xmlns:svg="http://www.w3.org/2000/svg">
  <sodipodi:namedview
     id="namedview1"
     pagecolor="#505050"
     bordercolor="#ffffff"
     borderopacity="1"
     inkscape:showpageshadow="0"
     inkscape:pageopacity="0"
     inkscape:pagecheckerboard="1"
     inkscape:deskcolor="#505050"
     inkscape:document-units="mm"
     inkscape:zoom="4"
     inkscape:cx="445.875"
     inkscape:cy="252.875"
     inkscape:window-width="1920"
     inkscape:window-height="1046"
     inkscape:window-x="-11"
     inkscape:window-y="-11"
     inkscape:window-maximized="1"
     inkscape:current-layer="layer1" />
  <defs
     id="defs1">
    <inkscape:path-effect
       effect="bspline"
       id="path-effect3"
       is_visible="true"
       lpeversion="1.3"
       weight="33.333333"
       steps="2"
       helper_size="0"
       apply_no_weight="true"
       apply_with_weight="true"
       only_selected="false"
       uniform="false" />
    <radialGradient
       inkscape:collect="always"
       xlink:href="#linearGradient24"
       id="radialGradient5-1-3-65-2-7-4-7-6-1-9-4-70-2-4-0"
       cx="346.65912"
       cy="611.47064"
       fx="346.65912"
       fy="611.47064"
       r="20"
       gradientUnits="userSpaceOnUse"
       gradientTransform="matrix(0.06104727,0.03964308,-0.04010541,0.06175923,256.67445,130.48849)" />
    <linearGradient
       id="linearGradient24"
       inkscape:collect="always">
      <stop
         style="stop-color:#f0f0f2;stop-opacity:1;"
         offset="0"
         id="stop23" />
      <stop
         style="stop-color:#c0bfc4;stop-opacity:1;"
         offset="1"
         id="stop24" />
    </linearGradient>
    <inkscape:path-effect
       effect="bspline"
       id="path-effect7"
       is_visible="true"
       lpeversion="1.3"
       weight="33.333333"
       steps="2"
       helper_size="0"
       apply_no_weight="true"
       apply_with_weight="true"
       only_selected="false"
       uniform="false" />
  </defs>
  <g
     inkscape:label="Layer 1"
     inkscape:groupmode="layer"
     id="layer1"
     transform="translate(-111.91875,-115.88747)">
    <rect
       style="fill:#c3ebfa;fill-opacity:0.65098;stroke:none;stroke-width:1.45192;stroke-dasharray:3.73119, 5.5968;stroke-dashoffset:0;stroke-opacity:1"
       id="rect11"
       width="140"
       height="77.266533"
       x="123.03124"
       y="125.41592"
       inkscape:export-filename=".\rect11.pdf"
       inkscape:export-xdpi="96"
       inkscape:export-ydpi="96" />
    <g
       id="g130-2-9-9-90-9"
       transform="matrix(3.6622073,0,0,3.6622073,-835.78128,-528.95584)">
      <g
         id="g129-4-06-0-5-2">
        <circle
           style="fill:url(#radialGradient5-1-3-65-2-7-4-7-6-1-9-4-70-2-4-0);stroke:none;stroke-width:0.094488;stroke-dasharray:none;stroke-opacity:1"
           id="path4-0-8-7-1-3-9-2-87-0-1-6-56-4-7-0"
           cx="253.51706"
           cy="182.32213"
           inkscape:transform-center-x="0.066813247"
           inkscape:transform-center-y="1.670331"
           r="1" />
        <g
           id="g9-6-6-5-1-1-77-1-1-8-4-9-7-5"
           transform="matrix(0.05360843,0,0,0.05360843,232.53203,151.0097)">
          <g
             fill="#000000"
             fill-opacity="1"
             id="g8-8-3-2-8-0-0-8-8-2-6-3-8-3"
             transform="matrix(1.33333,0,0,1.33333,375.94336,573.72279)">
            <g
               id="use3-4-3-8-9-2-9-8-4-2-1-9-7-7"
               transform="translate(1.993,13.562)">
              <path
                 d="m 8.171875,-3.671875 h -0.3125 c -0.140625,1.4375 -0.328125,3.25 -2.84375,3.25 h -1.25 c -0.625,0 -0.65625,-0.09375 -0.65625,-0.5625 V -8.6875 c 0,-0.515625 0.03125,-0.6875 1.28125,-0.6875 H 4.8125 v -0.421875 c -0.40625,0.03125 -1.671875,0.03125 -2.171875,0.03125 -0.4375,0 -1.703125,0 -2.046875,-0.03125 V -9.375 H 0.875 c 1.03125,0 1.078125,0.140625 1.078125,0.671875 v 7.609375 c 0,0.53125 -0.046875,0.671875 -1.078125,0.671875 H 0.59375 V 0 h 7.203125 z m 0,0"
                 id="path5-8-1-6-7-1-7-8-3-3-77-5-2-8" />
            </g>
            <g
               id="use4-9-4-8-6-11-0-6-8-7-93-9-25-8"
               transform="translate(10.770005,13.562)">
              <path
                 d="m 2.5,-8.828125 c 0,-0.375 -0.3125,-0.703125 -0.703125,-0.703125 -0.375,0 -0.6875,0.296875 -0.6875,0.6875 0,0.421875 0.34375,0.703125 0.6875,0.703125 0.4375,0 0.703125,-0.375 0.703125,-0.6875 z m -1.984375,2.65625 V -5.75 c 0.921875,0 1.046875,0.078125 1.046875,0.78125 v 3.90625 c 0,0.640625 -0.15625,0.640625 -1.09375,0.640625 V 0 C 0.875,-0.03125 1.5625,-0.03125 1.984375,-0.03125 c 0.15625,0 0.984375,0 1.46875,0.03125 v -0.421875 c -0.921875,0 -0.984375,-0.0625 -0.984375,-0.625 v -5.28125 z m 0,0"
                 id="path6-2-9-5-6-2-7-0-2-5-5-7-0-3" />
            </g>
          </g>
          <g
             fill="#000000"
             fill-opacity="1"
             id="g5-0-0-9-4-6-7-1-0-8-6-6-27-9"
             transform="matrix(1.33333,0,0,1.33333,375.12622,573.72279)">
            <g
               id="use5-0-5-8-3-1-5-9-7-6-35-5-0-9"
               transform="translate(14.671,8.3559999)">
              <path
                 d="M 4.453125,-2.515625 H 7.5 c 0.15625,0 0.359375,0 0.359375,-0.203125 C 7.859375,-2.9375 7.65625,-2.9375 7.5,-2.9375 H 4.453125 V -6 c 0,-0.15625 0,-0.359375 -0.203125,-0.359375 -0.21875,0 -0.21875,0.203125 -0.21875,0.359375 v 3.0625 h -3.0625 c -0.15625,0 -0.359375,0 -0.359375,0.21875 0,0.203125 0.203125,0.203125 0.359375,0.203125 h 3.0625 v 3.0625 c 0,0.15625 0,0.359375 0.21875,0.359375 0.203125,0 0.203125,-0.203125 0.203125,-0.359375 z m 0,0"
                 id="path7-5-3-3-5-8-5-0-2-3-0-8-22-1" />
            </g>
          </g>
        </g>
      </g>
    </g>
    <rect
       style="font-variation-settings:normal;vector-effect:none;fill:#e1964f;fill-opacity:1;stroke:none;stroke-width:0.172842;stroke-linecap:butt;stroke-linejoin:miter;stroke-miterlimit:4;stroke-dasharray:none;stroke-dashoffset:0;stroke-opacity:1;-inkscape-stroke:none;stop-color:#000000"
       id="rect11-8"
       width="140"
       height="7"
       x="123.03124"
       y="198.39987"
       inkscape:export-filename=".\rect11.pdf"
       inkscape:export-xdpi="96"
       inkscape:export-ydpi="96"
       inkscape:transform-center-x="-56.432747"
       inkscape:transform-center-y="-1.0476968" />
    <g
       id="g3"
       transform="translate(-1.7726974,2.5635019)">
      <rect
         style="font-variation-settings:normal;vector-effect:none;fill:#9ca1a3;fill-opacity:1;stroke:none;stroke-width:0.172842;stroke-linecap:butt;stroke-linejoin:miter;stroke-miterlimit:4;stroke-dasharray:none;stroke-dashoffset:0;stroke-opacity:1;-inkscape-stroke:none;stop-color:#000000"
         id="rect11-8-5"
         width="140"
         height="7"
         x="124.80394"
         y="109.6563"
         inkscape:export-filename=".\rect11.pdf"
         inkscape:export-xdpi="96"
         inkscape:export-ydpi="96"
         inkscape:transform-center-x="-56.432747"
         inkscape:transform-center-y="-1.0476968" />
      <rect
         style="font-variation-settings:normal;vector-effect:none;fill:#007bff;fill-opacity:1;stroke:none;stroke-width:0.184776;stroke-linecap:butt;stroke-linejoin:miter;stroke-miterlimit:4;stroke-dasharray:none;stroke-dashoffset:0;stroke-opacity:1;-inkscape-stroke:none;stop-color:#000000"
         id="rect11-8-5-5"
         width="140"
         height="8"
         x="124.80394"
         y="116.6563"
         inkscape:export-filename=".\rect11.pdf"
         inkscape:export-xdpi="96"
         inkscape:export-ydpi="96"
         inkscape:transform-center-x="-56.432747"
         inkscape:transform-center-y="-1.1973678" />
    </g>
    <text
       xml:space="preserve"
       style="font-size:3.88056px;line-height:normal;font-family:'CMU Serif';-inkscape-font-specification:'CMU Serif';font-variation-settings:normal;text-align:center;text-decoration-color:#000000;text-anchor:end;vector-effect:none;fill:#000000;fill-opacity:1;stroke:none;stroke-width:0.183119;stroke-linecap:butt;stroke-linejoin:miter;stroke-miterlimit:4;stroke-dasharray:none;stroke-dashoffset:0;stroke-opacity:1;-inkscape-stroke:none"
       x="260.87473"
       y="203.22528"
       id="text12"><tspan
         sodipodi:role="line"
         id="tspan12"
         style="fill:#000000;fill-opacity:1;stroke-width:0.183119"
         x="260.87473"
         y="203.22528">Cu</tspan></text>
    <text
       xml:space="preserve"
       style="font-size:3.88056px;line-height:normal;font-family:'CMU Serif';-inkscape-font-specification:'CMU Serif';font-variation-settings:normal;text-align:center;text-decoration-color:#000000;text-anchor:end;vector-effect:none;fill:#000000;fill-opacity:1;stroke:none;stroke-width:0.183119;stroke-linecap:butt;stroke-linejoin:miter;stroke-miterlimit:4;stroke-dasharray:none;stroke-dashoffset:0;stroke-opacity:1;-inkscape-stroke:none"
       x="260.86658"
       y="140.52711"
       id="text12-9"><tspan
         sodipodi:role="line"
         id="tspan12-9"
         style="fill:#000000;fill-opacity:1;stroke-width:0.183119"
         x="260.86658"
         y="140.52711">Electrolyte</tspan></text>
    <rect
       style="fill:#000000;stroke:#000000;stroke-width:0.499998;stroke-linejoin:bevel"
       id="rect1"
       width="160"
       height="6.5481038"
       x="112.16875"
       y="79.09581" />
    <rect
       style="font-variation-settings:normal;vector-effect:none;fill:#c8c7cc;fill-opacity:1;stroke:none;stroke-width:0.184776;stroke-linecap:butt;stroke-linejoin:miter;stroke-miterlimit:4;stroke-dasharray:none;stroke-dashoffset:0;stroke-opacity:1;-inkscape-stroke:none;stop-color:#000000"
       id="rect11-8-3"
       width="140"
       height="8"
       x="123.03124"
       y="190.39987"
       inkscape:export-filename=".\rect11.pdf"
       inkscape:export-xdpi="96"
       inkscape:export-ydpi="96"
       inkscape:transform-center-x="-56.432747"
       inkscape:transform-center-y="-1.1973678" />
    <rect
       style="font-variation-settings:normal;vector-effect:none;fill:#c8c7cc;fill-opacity:1;stroke:none;stroke-width:0.182484;stroke-linecap:butt;stroke-linejoin:miter;stroke-miterlimit:4;stroke-dasharray:none;stroke-dashoffset:0;stroke-opacity:1;-inkscape-stroke:none;stop-color:#000000"
       id="rect11-8-3-6"
       width="140"
       height="7.8027124"
       x="123.03124"
       y="182.59715"
       inkscape:export-filename=".\rect11.pdf"
       inkscape:export-xdpi="96"
       inkscape:export-ydpi="96"
       inkscape:transform-center-x="-56.432747"
       inkscape:transform-center-y="-1.1678451" />
    <path
       style="fill:none;fill-opacity:1;stroke:#000000;stroke-width:0.4;stroke-dasharray:1.6, 1.6;stroke-dashoffset:0;stroke-opacity:1"
       d="m 123.03124,190.16036 h 140"
       id="path1" />
    <text
       xml:space="preserve"
       style="font-size:3.88056px;line-height:normal;font-family:'CMU Serif';-inkscape-font-specification:'CMU Serif';text-align:center;text-decoration-color:#000000;text-anchor:end;fill:none;fill-opacity:1;stroke:#000000;stroke-width:0.4;stroke-dasharray:1.6, 1.6;stroke-dashoffset:0;stroke-opacity:1"
       x="261.5174"
       y="186.37001"
       id="text2"><tspan
         sodipodi:role="line"
         id="tspan2"
         style="fill:#000000;fill-opacity:1;stroke:none;stroke-width:0.4"
         x="261.5174"
         y="186.37001">Deposited Li</tspan></text>
    <text
       xml:space="preserve"
       style="font-size:3.88056px;line-height:normal;font-family:'CMU Serif';-inkscape-font-specification:'CMU Serif';text-align:center;text-decoration-color:#000000;text-anchor:end;fill:#c8c7cc;fill-opacity:1;stroke-width:0.4;stroke-dashoffset:7.93398"
       x="261.3345"
       y="195.70349"
       id="text1"><tspan
         sodipodi:role="line"
         id="tspan1"
         style="fill:#000000;stroke-width:0.4"
         x="261.3345"
         y="195.70349">Pristine Li</tspan></text>
    <path
       style="fill:#000000;fill-opacity:1;stroke:none;stroke-width:0.4;stroke-dasharray:1.6, 1.6;stroke-dashoffset:0;stroke-opacity:1"
       d="m 123.8958,178.25908 c 0.90868,0.92672 2.66264,2.78981 4.31527,3.68628 1.65263,0.89646 3.20388,0.82631 4.7123,-1.27069 1.50842,-2.09699 2.97391,-6.22065 3.847,-11.18245 0.87308,-4.96181 1.15371,-10.76145 1.63703,-18.97786 0.48331,-8.21642 1.16929,-18.84908 1.6526,-24.92948 0.48332,-6.08039 0.76395,-7.60825 1.73059,0.18728 0.96664,7.79553 2.61922,24.9138 4.724,36.18595 2.10477,11.27215 4.6616,16.69761 7.17173,19.17653 2.51013,2.47892 4.97341,2.0112 7.09377,1.07575 2.12036,-0.93546 3.89766,-2.33859 6.36103,-4.47455 2.46337,-2.13596 5.61263,-5.0046 7.95125,-8.73083 2.33862,-3.72622 3.86648,-8.30981 5.94007,-11.25647 2.0736,-2.94666 4.69279,-4.25625 7.29646,-4.44333 2.60368,-0.18708 5.19169,0.74835 6.11154,3.66386 0.91984,2.91551 0.1715,7.8109 -0.18709,11.3812 -0.35859,3.5703 -0.32743,5.81532 0.79512,8.35664 1.12255,2.54131 3.33639,5.37877 7.12498,6.59484 3.7886,1.21607 9.1517,0.81072 13.48595,0.10913 4.33426,-0.7016 7.63943,-1.69938 10.14955,-3.50793 2.51012,-1.80855 4.22507,-4.42774 6.67284,-5.90886 2.44778,-1.48112 5.62822,-1.82411 7.77975,-1.23165 2.15154,0.59246 3.27405,2.12032 4.13154,3.74178 0.8575,1.62145 1.44993,3.33639 3.74181,4.28743 2.29188,0.95103 6.28302,1.13812 9.26771,1.50937 2.98469,0.37125 4.96275,0.92663 5.65003,1.26273 0.68729,0.33611 0.0837,0.45289 -8.6849,0.9881 -8.76863,0.5352 -25.70163,1.48879 -43.41787,2.16403 -17.71624,0.67524 -36.21466,1.07211 -50.68968,1.06108 -14.47501,-0.011 -24.92585,-0.42995 -30.54506,-1.04879 -5.61921,-0.61885 -6.40653,-1.43758 -6.7437,-3.03368 -0.33717,-1.59611 -0.22414,-3.96945 -0.13592,-5.16097 0.0882,-1.19152 0.15163,-1.20116 1.0603,-0.27444 z"
       id="path3"
       inkscape:path-effect="#path-effect3"
       inkscape:original-d="m 123.05053,177.32271 c 1.75395,1.86309 3.50791,3.72618 5.26186,5.58927 1.55131,-0.0702 3.10256,-0.14031 4.65384,-0.21047 1.46555,-4.12383 2.93105,-8.24749 4.39658,-12.37124 0.28064,-5.79986 0.56126,-11.5995 0.8419,-17.39924 0.686,-10.63309 1.37198,-21.26575 2.05797,-31.89862 0.28064,-1.52792 0.56127,-3.05578 0.8419,-4.58367 1.65265,17.11895 3.30524,34.23722 4.95785,51.35583 2.55693,5.42569 5.11376,10.85115 7.67064,16.27672 2.46338,-0.46773 4.92666,-0.93544 7.39,-1.40317 1.77738,-1.40319 3.55468,-2.80633 5.33203,-4.20949 3.14939,-2.86875 6.29865,-5.73739 9.44797,-8.60608 1.52793,-4.58376 3.05579,-9.16735 4.58367,-13.75102 2.6193,-1.30964 5.23849,-2.61924 7.85773,-3.92886 2.58811,0.93546 5.17612,1.87089 7.76418,2.80633 -0.74837,4.89558 -1.49671,9.79097 -2.24506,14.68646 0.0312,2.24511 0.0624,4.49013 0.0935,6.73519 2.21393,2.83757 4.42776,5.67503 6.64165,8.51254 5.36331,-0.40537 10.72641,-0.81072 16.08962,-1.21608 3.3053,-0.99782 6.61047,-1.99561 9.9157,-2.99342 1.71502,-2.61929 3.42996,-5.23848 5.14494,-7.85772 3.18057,-0.343 6.36101,-0.68599 9.54152,-1.02899 1.12256,1.52792 2.24507,3.05578 3.3676,4.58367 0.59246,1.71502 1.18489,3.42996 1.77734,5.14494 3.99131,0.18709 7.98245,0.37418 11.97368,0.56127 1.97815,0.55541 3.95621,1.11079 5.93437,1.66621 -0.60359,0.11679 -1.20716,0.23357 -1.81074,0.35036 -16.93367,0.95362 -33.86667,1.90721 -50.8,2.86081 -18.49915,0.39688 -36.99757,0.79375 -55.49635,1.19062 -10.45125,-0.41893 -20.90209,-0.83784 -31.35313,-1.25677 -0.78738,-0.81877 -1.5747,-1.6375 -2.36208,-2.45627 0.11304,-2.37344 0.22607,-4.74678 0.33911,-7.12017 0.0634,-0.01 0.12681,-0.0193 0.19021,-0.0289 z"
       sodipodi:nodetypes="ccccccccccccccccccccccccccccccccc" />
  </g>
</svg>
