<?xml version="1.0" encoding="UTF-8" standalone="no"?>
<!-- Created with Inkscape (http://www.inkscape.org/) -->

<svg
   width="17.899038mm"
   height="2.6899323mm"
   viewBox="0 0 17.899039 2.6899324"
   version="1.1"
   id="svg1"
   sodipodi:docname="sigma-values.svg"
   inkscape:export-filename="sigma-0.0004.png"
   inkscape:export-xdpi="639.78998"
   inkscape:export-ydpi="639.78998"
   inkscape:version="1.3.2 (091e20e, 2023-11-25, custom)"
   xmlns:inkscape="http://www.inkscape.org/namespaces/inkscape"
   xmlns:sodipodi="http://sodipodi.sourceforge.net/DTD/sodipodi-0.dtd"
   xmlns="http://www.w3.org/2000/svg"
   xmlns:svg="http://www.w3.org/2000/svg">
  <sodipodi:namedview
     id="namedview1"
     pagecolor="#505050"
     bordercolor="#ffffff"
     borderopacity="1"
     inkscape:showpageshadow="0"
     inkscape:pageopacity="0"
     inkscape:pagecheckerboard="1"
     inkscape:deskcolor="#505050"
     inkscape:document-units="mm"
     inkscape:zoom="5.066849"
     inkscape:cx="-0.69076461"
     inkscape:cy="-22.005787"
     inkscape:window-width="1920"
     inkscape:window-height="1046"
     inkscape:window-x="-11"
     inkscape:window-y="-11"
     inkscape:window-maximized="1"
     inkscape:current-layer="layer1" />
  <defs
     id="defs1" />
  <g
     inkscape:label="Layer 1"
     inkscape:groupmode="layer"
     id="layer1"
     transform="translate(-158.42787,-83.568855)">
    <g
       fill="#000000"
       fill-opacity="1"
       id="g4"
       transform="matrix(0.352778,0,0,0.352778,153.34573,63.210635)">
      <g
         id="g3"
         transform="translate(1.993,9.0220003)">
        <path
           d="m 5.65625,-4.0625 c 0.140625,0 0.53125,0 0.53125,-0.375 0,-0.265625 -0.234375,-0.265625 -0.421875,-0.265625 h -2.5 c -1.640625,0 -2.84375,1.796875 -2.84375,3.09375 0,0.96875 0.640625,1.734375 1.625,1.734375 1.296875,0 2.734375,-1.328125 2.734375,-3 0,-0.1875 0,-0.71875 -0.328125,-1.1875 z M 2.0625,-0.125 c -0.53125,0 -0.96875,-0.390625 -0.96875,-1.171875 0,-0.328125 0.125,-1.21875 0.515625,-1.859375 C 2.0625,-3.921875 2.71875,-4.0625 3.09375,-4.0625 c 0.90625,0 1,0.71875 1,1.046875 C 4.09375,-2.5 3.875,-1.609375 3.5,-1.046875 3.078125,-0.40625 2.484375,-0.125 2.0625,-0.125 Z m 0,0"
           id="path2" />
      </g>
    </g>
    <g
       fill="#000000"
       fill-opacity="1"
       id="g9"
       transform="matrix(0.352778,0,0,0.352778,153.34573,63.210635)">
      <g
         id="g5"
         transform="translate(11.648,9.0220003)">
        <path
           d="m 7.5,-3.5625 c 0.15625,0 0.359375,0 0.359375,-0.21875 C 7.859375,-4 7.65625,-4 7.5,-4 H 0.96875 c -0.15625,0 -0.359375,0 -0.359375,0.21875 0,0.21875 0.203125,0.21875 0.375,0.21875 z m 0,2.109375 c 0.15625,0 0.359375,0 0.359375,-0.21875 0,-0.21875 -0.203125,-0.21875 -0.359375,-0.21875 H 0.984375 c -0.171875,0 -0.375,0 -0.375,0.21875 0,0.21875 0.203125,0.21875 0.359375,0.21875 z m 0,0"
           id="path4" />
      </g>
    </g>
    <g
       fill="#000000"
       fill-opacity="1"
       id="g11"
       transform="matrix(0.352778,0,0,0.352778,153.34573,63.210635)">
      <g
         id="g10"
         transform="translate(23.165829,9.0220003)">
        <path
           d="m 5.015625,-3.484375 c 0,-0.875 -0.046875,-1.75 -0.4375,-2.5625 -0.5,-1.046875 -1.390625,-1.21875 -1.859375,-1.21875 -0.640625,0 -1.4375,0.28125 -1.890625,1.296875 -0.34375,0.75 -0.40625,1.609375 -0.40625,2.484375 0,0.8125 0.046875,1.796875 0.5,2.625 0.46875,0.875 1.265625,1.09375 1.796875,1.09375 0.578125,0 1.421875,-0.21875 1.890625,-1.265625 0.359375,-0.75 0.40625,-1.59375 0.40625,-2.453125 z M 2.71875,0 C 2.296875,0 1.640625,-0.265625 1.453125,-1.3125 c -0.125,-0.65625 -0.125,-1.671875 -0.125,-2.3125 0,-0.6875 0,-1.40625 0.09375,-2 C 1.625,-6.921875 2.4375,-7.03125 2.71875,-7.03125 c 0.359375,0 1.078125,0.203125 1.28125,1.28125 0.109375,0.609375 0.109375,1.4375 0.109375,2.125 0,0.828125 0,1.5625 -0.125,2.265625 C 3.828125,-0.328125 3.203125,0 2.71875,0 Z m 0,0"
           id="path12" />
      </g>
    </g>
    <g
       fill="#000000"
       fill-opacity="1"
       id="g12"
       transform="matrix(0.352778,0,0,0.352778,153.34573,63.210635)">
      <g
         id="use8"
         transform="translate(28.617001,9.0220003)">
        <path
           d="m 2.09375,-0.578125 c 0,-0.3125 -0.265625,-0.578125 -0.578125,-0.578125 -0.3125,0 -0.578125,0.265625 -0.578125,0.578125 C 0.9375,-0.265625 1.203125,0 1.515625,0 1.828125,0 2.09375,-0.265625 2.09375,-0.578125 Z m 0,0"
           id="path13" />
      </g>
    </g>
    <g
       fill="#000000"
       fill-opacity="1"
       id="g13"
       transform="matrix(0.352778,0,0,0.352778,153.34573,63.210635)">
      <g
         id="use9"
         transform="translate(31.648001,9.0220003)">
        <path
           d="m 5.015625,-3.484375 c 0,-0.875 -0.046875,-1.75 -0.4375,-2.5625 -0.5,-1.046875 -1.390625,-1.21875 -1.859375,-1.21875 -0.640625,0 -1.4375,0.28125 -1.890625,1.296875 -0.34375,0.75 -0.40625,1.609375 -0.40625,2.484375 0,0.8125 0.046875,1.796875 0.5,2.625 0.46875,0.875 1.265625,1.09375 1.796875,1.09375 0.578125,0 1.421875,-0.21875 1.890625,-1.265625 0.359375,-0.75 0.40625,-1.59375 0.40625,-2.453125 z M 2.71875,0 C 2.296875,0 1.640625,-0.265625 1.453125,-1.3125 c -0.125,-0.65625 -0.125,-1.671875 -0.125,-2.3125 0,-0.6875 0,-1.40625 0.09375,-2 C 1.625,-6.921875 2.4375,-7.03125 2.71875,-7.03125 c 0.359375,0 1.078125,0.203125 1.28125,1.28125 0.109375,0.609375 0.109375,1.4375 0.109375,2.125 0,0.828125 0,1.5625 -0.125,2.265625 C 3.828125,-0.328125 3.203125,0 2.71875,0 Z m 0,0"
           id="path14" />
      </g>
      <g
         id="use10"
         transform="translate(37.102551,9.0220003)">
        <path
           d="m 1.390625,-0.84375 1.15625,-1.125 c 1.703125,-1.5 2.34375,-2.09375 2.34375,-3.171875 0,-1.25 -0.96875,-2.125 -2.3125,-2.125 -1.21875,0 -2.03125,1 -2.03125,1.96875 0,0.625 0.546875,0.625 0.578125,0.625 0.1875,0 0.5625,-0.140625 0.5625,-0.578125 0,-0.296875 -0.1875,-0.578125 -0.578125,-0.578125 -0.078125,0 -0.109375,0 -0.140625,0.015625 0.25,-0.703125 0.84375,-1.109375 1.46875,-1.109375 1,0 1.46875,0.875 1.46875,1.78125 0,0.859375 -0.546875,1.734375 -1.140625,2.40625 l -2.09375,2.328125 c -0.125,0.125 -0.125,0.140625 -0.125,0.40625 H 4.59375 L 4.890625,-1.890625 H 4.625 C 4.5625,-1.578125 4.5,-1.09375 4.390625,-0.921875 4.3125,-0.84375 3.59375,-0.84375 3.34375,-0.84375 Z m 0,0"
           id="path15" />
      </g>
    </g>
    <g
       id="g50"
       transform="translate(-0.05221852,4.4385738)">
      <g
         inkscape:label=""
         transform="translate(155.47699,67.772745)"
         id="g23">
        <g
           fill="#000000"
           fill-opacity="1"
           id="g6"
           transform="matrix(0.352778,0,0,0.352778,-0.851914,-0.61961)">
          <g
             id="use5"
             transform="translate(1.993,9.0220003)">
            <path
               d="m 5.65625,-4.0625 c 0.140625,0 0.53125,0 0.53125,-0.375 0,-0.265625 -0.234375,-0.265625 -0.421875,-0.265625 h -2.5 c -1.640625,0 -2.84375,1.796875 -2.84375,3.09375 0,0.96875 0.640625,1.734375 1.625,1.734375 1.296875,0 2.734375,-1.328125 2.734375,-3 0,-0.1875 0,-0.71875 -0.328125,-1.1875 z M 2.0625,-0.125 c -0.53125,0 -0.96875,-0.390625 -0.96875,-1.171875 0,-0.328125 0.125,-1.21875 0.515625,-1.859375 C 2.0625,-3.921875 2.71875,-4.0625 3.09375,-4.0625 c 0.90625,0 1,0.71875 1,1.046875 C 4.09375,-2.5 3.875,-1.609375 3.5,-1.046875 3.078125,-0.40625 2.484375,-0.125 2.0625,-0.125 Z m 0,0"
               id="path11" />
          </g>
        </g>
        <g
           fill="#000000"
           fill-opacity="1"
           id="g7"
           transform="matrix(0.352778,0,0,0.352778,-0.851914,-0.61961)">
          <g
             id="use6"
             transform="translate(11.648,9.0220003)">
            <path
               d="m 7.5,-3.5625 c 0.15625,0 0.359375,0 0.359375,-0.21875 C 7.859375,-4 7.65625,-4 7.5,-4 H 0.96875 c -0.15625,0 -0.359375,0 -0.359375,0.21875 0,0.21875 0.203125,0.21875 0.375,0.21875 z m 0,2.109375 c 0.15625,0 0.359375,0 0.359375,-0.21875 0,-0.21875 -0.203125,-0.21875 -0.359375,-0.21875 H 0.984375 c -0.171875,0 -0.375,0 -0.375,0.21875 0,0.21875 0.203125,0.21875 0.359375,0.21875 z m 0,0"
               id="path16" />
          </g>
        </g>
        <g
           fill="#000000"
           fill-opacity="1"
           id="g8"
           transform="matrix(0.352778,0,0,0.352778,-0.851914,-0.61961)">
          <g
             id="use7"
             transform="translate(23.165829,9.0220003)">
            <path
               d="m 5.015625,-3.484375 c 0,-0.875 -0.046875,-1.75 -0.4375,-2.5625 -0.5,-1.046875 -1.390625,-1.21875 -1.859375,-1.21875 -0.640625,0 -1.4375,0.28125 -1.890625,1.296875 -0.34375,0.75 -0.40625,1.609375 -0.40625,2.484375 0,0.8125 0.046875,1.796875 0.5,2.625 0.46875,0.875 1.265625,1.09375 1.796875,1.09375 0.578125,0 1.421875,-0.21875 1.890625,-1.265625 0.359375,-0.75 0.40625,-1.59375 0.40625,-2.453125 z M 2.71875,0 C 2.296875,0 1.640625,-0.265625 1.453125,-1.3125 c -0.125,-0.65625 -0.125,-1.671875 -0.125,-2.3125 0,-0.6875 0,-1.40625 0.09375,-2 C 1.625,-6.921875 2.4375,-7.03125 2.71875,-7.03125 c 0.359375,0 1.078125,0.203125 1.28125,1.28125 0.109375,0.609375 0.109375,1.4375 0.109375,2.125 0,0.828125 0,1.5625 -0.125,2.265625 C 3.828125,-0.328125 3.203125,0 2.71875,0 Z m 0,0"
               id="path17" />
          </g>
        </g>
        <g
           fill="#000000"
           fill-opacity="1"
           id="g19"
           transform="matrix(0.352778,0,0,0.352778,-0.851914,-0.61961)">
          <g
             id="g18"
             transform="translate(28.617001,9.0220003)">
            <path
               d="m 2.09375,-0.578125 c 0,-0.3125 -0.265625,-0.578125 -0.578125,-0.578125 -0.3125,0 -0.578125,0.265625 -0.578125,0.578125 C 0.9375,-0.265625 1.203125,0 1.515625,0 1.828125,0 2.09375,-0.265625 2.09375,-0.578125 Z m 0,0"
               id="path18" />
          </g>
        </g>
        <g
           fill="#000000"
           fill-opacity="1"
           id="g22"
           transform="matrix(0.352778,0,0,0.352778,-0.851914,-0.61961)">
          <g
             id="g20"
             transform="translate(31.648001,9.0220003)">
            <path
               d="m 5.015625,-3.484375 c 0,-0.875 -0.046875,-1.75 -0.4375,-2.5625 -0.5,-1.046875 -1.390625,-1.21875 -1.859375,-1.21875 -0.640625,0 -1.4375,0.28125 -1.890625,1.296875 -0.34375,0.75 -0.40625,1.609375 -0.40625,2.484375 0,0.8125 0.046875,1.796875 0.5,2.625 0.46875,0.875 1.265625,1.09375 1.796875,1.09375 0.578125,0 1.421875,-0.21875 1.890625,-1.265625 0.359375,-0.75 0.40625,-1.59375 0.40625,-2.453125 z M 2.71875,0 C 2.296875,0 1.640625,-0.265625 1.453125,-1.3125 c -0.125,-0.65625 -0.125,-1.671875 -0.125,-2.3125 0,-0.6875 0,-1.40625 0.09375,-2 C 1.625,-6.921875 2.4375,-7.03125 2.71875,-7.03125 c 0.359375,0 1.078125,0.203125 1.28125,1.28125 0.109375,0.609375 0.109375,1.4375 0.109375,2.125 0,0.828125 0,1.5625 -0.125,2.265625 C 3.828125,-0.328125 3.203125,0 2.71875,0 Z m 0,0"
               id="path19" />
          </g>
          <g
             id="g21"
             transform="translate(37.102551,9.0220003)">
            <path
               d="m 5.015625,-3.484375 c 0,-0.875 -0.046875,-1.75 -0.4375,-2.5625 -0.5,-1.046875 -1.390625,-1.21875 -1.859375,-1.21875 -0.640625,0 -1.4375,0.28125 -1.890625,1.296875 -0.34375,0.75 -0.40625,1.609375 -0.40625,2.484375 0,0.8125 0.046875,1.796875 0.5,2.625 0.46875,0.875 1.265625,1.09375 1.796875,1.09375 0.578125,0 1.421875,-0.21875 1.890625,-1.265625 0.359375,-0.75 0.40625,-1.59375 0.40625,-2.453125 z M 2.71875,0 C 2.296875,0 1.640625,-0.265625 1.453125,-1.3125 c -0.125,-0.65625 -0.125,-1.671875 -0.125,-2.3125 0,-0.6875 0,-1.40625 0.09375,-2 C 1.625,-6.921875 2.4375,-7.03125 2.71875,-7.03125 c 0.359375,0 1.078125,0.203125 1.28125,1.28125 0.109375,0.609375 0.109375,1.4375 0.109375,2.125 0,0.828125 0,1.5625 -0.125,2.265625 C 3.828125,-0.328125 3.203125,0 2.71875,0 Z m 0,0"
               id="path20" />
          </g>
          <g
             id="use11"
             transform="translate(42.557098,9.0220003)">
            <path
               d="m 1.390625,-0.84375 1.15625,-1.125 c 1.703125,-1.5 2.34375,-2.09375 2.34375,-3.171875 0,-1.25 -0.96875,-2.125 -2.3125,-2.125 -1.21875,0 -2.03125,1 -2.03125,1.96875 0,0.625 0.546875,0.625 0.578125,0.625 0.1875,0 0.5625,-0.140625 0.5625,-0.578125 0,-0.296875 -0.1875,-0.578125 -0.578125,-0.578125 -0.078125,0 -0.109375,0 -0.140625,0.015625 0.25,-0.703125 0.84375,-1.109375 1.46875,-1.109375 1,0 1.46875,0.875 1.46875,1.78125 0,0.859375 -0.546875,1.734375 -1.140625,2.40625 l -2.09375,2.328125 c -0.125,0.125 -0.125,0.140625 -0.125,0.40625 H 4.59375 L 4.890625,-1.890625 H 4.625 C 4.5625,-1.578125 4.5,-1.09375 4.390625,-0.921875 4.3125,-0.84375 3.59375,-0.84375 3.34375,-0.84375 Z m 0,0"
               id="path21" />
          </g>
        </g>
      </g>
    </g>
    <g
       inkscape:label=""
       transform="translate(158.218,77.7726)"
       id="g63">
      <g
         fill="#000000"
         fill-opacity="1"
         id="g52"
         transform="matrix(0.352778,0,0,0.352778,-0.851914,-0.61961)">
        <g
           id="g51"
           transform="translate(1.993,9.0220003)">
          <path
             d="m 5.65625,-4.0625 c 0.140625,0 0.53125,0 0.53125,-0.375 0,-0.265625 -0.234375,-0.265625 -0.421875,-0.265625 h -2.5 c -1.640625,0 -2.84375,1.796875 -2.84375,3.09375 0,0.96875 0.640625,1.734375 1.625,1.734375 1.296875,0 2.734375,-1.328125 2.734375,-3 0,-0.1875 0,-0.71875 -0.328125,-1.1875 z M 2.0625,-0.125 c -0.53125,0 -0.96875,-0.390625 -0.96875,-1.171875 0,-0.328125 0.125,-1.21875 0.515625,-1.859375 C 2.0625,-3.921875 2.71875,-4.0625 3.09375,-4.0625 c 0.90625,0 1,0.71875 1,1.046875 C 4.09375,-2.5 3.875,-1.609375 3.5,-1.046875 3.078125,-0.40625 2.484375,-0.125 2.0625,-0.125 Z m 0,0"
             id="path50" />
        </g>
      </g>
      <g
         fill="#000000"
         fill-opacity="1"
         id="g54"
         transform="matrix(0.352778,0,0,0.352778,-0.851914,-0.61961)">
        <g
           id="g53"
           transform="translate(11.648,9.0220003)">
          <path
             d="m 7.5,-3.5625 c 0.15625,0 0.359375,0 0.359375,-0.21875 C 7.859375,-4 7.65625,-4 7.5,-4 H 0.96875 c -0.15625,0 -0.359375,0 -0.359375,0.21875 0,0.21875 0.203125,0.21875 0.375,0.21875 z m 0,2.109375 c 0.15625,0 0.359375,0 0.359375,-0.21875 0,-0.21875 -0.203125,-0.21875 -0.359375,-0.21875 H 0.984375 c -0.171875,0 -0.375,0 -0.375,0.21875 0,0.21875 0.203125,0.21875 0.359375,0.21875 z m 0,0"
             id="path52" />
        </g>
      </g>
      <g
         fill="#000000"
         fill-opacity="1"
         id="g56"
         transform="matrix(0.352778,0,0,0.352778,-0.851914,-0.61961)">
        <g
           id="g55"
           transform="translate(23.165829,9.0220003)">
          <path
             d="m 5.015625,-3.484375 c 0,-0.875 -0.046875,-1.75 -0.4375,-2.5625 -0.5,-1.046875 -1.390625,-1.21875 -1.859375,-1.21875 -0.640625,0 -1.4375,0.28125 -1.890625,1.296875 -0.34375,0.75 -0.40625,1.609375 -0.40625,2.484375 0,0.8125 0.046875,1.796875 0.5,2.625 0.46875,0.875 1.265625,1.09375 1.796875,1.09375 0.578125,0 1.421875,-0.21875 1.890625,-1.265625 0.359375,-0.75 0.40625,-1.59375 0.40625,-2.453125 z M 2.71875,0 C 2.296875,0 1.640625,-0.265625 1.453125,-1.3125 c -0.125,-0.65625 -0.125,-1.671875 -0.125,-2.3125 0,-0.6875 0,-1.40625 0.09375,-2 C 1.625,-6.921875 2.4375,-7.03125 2.71875,-7.03125 c 0.359375,0 1.078125,0.203125 1.28125,1.28125 0.109375,0.609375 0.109375,1.4375 0.109375,2.125 0,0.828125 0,1.5625 -0.125,2.265625 C 3.828125,-0.328125 3.203125,0 2.71875,0 Z m 0,0"
             id="path54" />
        </g>
      </g>
      <g
         fill="#000000"
         fill-opacity="1"
         id="g58"
         transform="matrix(0.352778,0,0,0.352778,-0.851914,-0.61961)">
        <g
           id="g57"
           transform="translate(28.617001,9.0220003)">
          <path
             d="m 2.09375,-0.578125 c 0,-0.3125 -0.265625,-0.578125 -0.578125,-0.578125 -0.3125,0 -0.578125,0.265625 -0.578125,0.578125 C 0.9375,-0.265625 1.203125,0 1.515625,0 1.828125,0 2.09375,-0.265625 2.09375,-0.578125 Z m 0,0"
             id="path56" />
        </g>
      </g>
      <g
         fill="#000000"
         fill-opacity="1"
         id="g62"
         transform="matrix(0.352778,0,0,0.352778,-0.851914,-0.61961)">
        <g
           id="g59"
           transform="translate(31.648001,9.0220003)">
          <path
             d="m 5.015625,-3.484375 c 0,-0.875 -0.046875,-1.75 -0.4375,-2.5625 -0.5,-1.046875 -1.390625,-1.21875 -1.859375,-1.21875 -0.640625,0 -1.4375,0.28125 -1.890625,1.296875 -0.34375,0.75 -0.40625,1.609375 -0.40625,2.484375 0,0.8125 0.046875,1.796875 0.5,2.625 0.46875,0.875 1.265625,1.09375 1.796875,1.09375 0.578125,0 1.421875,-0.21875 1.890625,-1.265625 0.359375,-0.75 0.40625,-1.59375 0.40625,-2.453125 z M 2.71875,0 C 2.296875,0 1.640625,-0.265625 1.453125,-1.3125 c -0.125,-0.65625 -0.125,-1.671875 -0.125,-2.3125 0,-0.6875 0,-1.40625 0.09375,-2 C 1.625,-6.921875 2.4375,-7.03125 2.71875,-7.03125 c 0.359375,0 1.078125,0.203125 1.28125,1.28125 0.109375,0.609375 0.109375,1.4375 0.109375,2.125 0,0.828125 0,1.5625 -0.125,2.265625 C 3.828125,-0.328125 3.203125,0 2.71875,0 Z m 0,0"
             id="path58" />
        </g>
        <g
           id="g60"
           transform="translate(37.102551,9.0220003)">
          <path
             d="m 5.015625,-3.484375 c 0,-0.875 -0.046875,-1.75 -0.4375,-2.5625 -0.5,-1.046875 -1.390625,-1.21875 -1.859375,-1.21875 -0.640625,0 -1.4375,0.28125 -1.890625,1.296875 -0.34375,0.75 -0.40625,1.609375 -0.40625,2.484375 0,0.8125 0.046875,1.796875 0.5,2.625 0.46875,0.875 1.265625,1.09375 1.796875,1.09375 0.578125,0 1.421875,-0.21875 1.890625,-1.265625 0.359375,-0.75 0.40625,-1.59375 0.40625,-2.453125 z M 2.71875,0 C 2.296875,0 1.640625,-0.265625 1.453125,-1.3125 c -0.125,-0.65625 -0.125,-1.671875 -0.125,-2.3125 0,-0.6875 0,-1.40625 0.09375,-2 C 1.625,-6.921875 2.4375,-7.03125 2.71875,-7.03125 c 0.359375,0 1.078125,0.203125 1.28125,1.28125 0.109375,0.609375 0.109375,1.4375 0.109375,2.125 0,0.828125 0,1.5625 -0.125,2.265625 C 3.828125,-0.328125 3.203125,0 2.71875,0 Z m 0,0"
             id="path59" />
        </g>
        <g
           id="g61"
           transform="translate(42.557098,9.0220003)">
          <path
             d="m 5.015625,-3.484375 c 0,-0.875 -0.046875,-1.75 -0.4375,-2.5625 -0.5,-1.046875 -1.390625,-1.21875 -1.859375,-1.21875 -0.640625,0 -1.4375,0.28125 -1.890625,1.296875 -0.34375,0.75 -0.40625,1.609375 -0.40625,2.484375 0,0.8125 0.046875,1.796875 0.5,2.625 0.46875,0.875 1.265625,1.09375 1.796875,1.09375 0.578125,0 1.421875,-0.21875 1.890625,-1.265625 0.359375,-0.75 0.40625,-1.59375 0.40625,-2.453125 z M 2.71875,0 C 2.296875,0 1.640625,-0.265625 1.453125,-1.3125 c -0.125,-0.65625 -0.125,-1.671875 -0.125,-2.3125 0,-0.6875 0,-1.40625 0.09375,-2 C 1.625,-6.921875 2.4375,-7.03125 2.71875,-7.03125 c 0.359375,0 1.078125,0.203125 1.28125,1.28125 0.109375,0.609375 0.109375,1.4375 0.109375,2.125 0,0.828125 0,1.5625 -0.125,2.265625 C 3.828125,-0.328125 3.203125,0 2.71875,0 Z m 0,0"
             id="path60" />
        </g>
        <g
           id="use12"
           transform="translate(48.01165,9.0220003)">
          <path
             d="m 1.390625,-0.84375 1.15625,-1.125 c 1.703125,-1.5 2.34375,-2.09375 2.34375,-3.171875 0,-1.25 -0.96875,-2.125 -2.3125,-2.125 -1.21875,0 -2.03125,1 -2.03125,1.96875 0,0.625 0.546875,0.625 0.578125,0.625 0.1875,0 0.5625,-0.140625 0.5625,-0.578125 0,-0.296875 -0.1875,-0.578125 -0.578125,-0.578125 -0.078125,0 -0.109375,0 -0.140625,0.015625 0.25,-0.703125 0.84375,-1.109375 1.46875,-1.109375 1,0 1.46875,0.875 1.46875,1.78125 0,0.859375 -0.546875,1.734375 -1.140625,2.40625 l -2.09375,2.328125 c -0.125,0.125 -0.125,0.140625 -0.125,0.40625 H 4.59375 L 4.890625,-1.890625 H 4.625 C 4.5625,-1.578125 4.5,-1.09375 4.390625,-0.921875 4.3125,-0.84375 3.59375,-0.84375 3.34375,-0.84375 Z m 0,0"
             id="path61" />
        </g>
      </g>
    </g>
    <g
       inkscape:label=""
       transform="translate(158.42787,83.568855)"
       id="g77">
      <g
         fill="#000000"
         fill-opacity="1"
         id="g65"
         transform="matrix(0.352778,0,0,0.352778,-0.851914,-0.575513)">
        <g
           id="g64"
           transform="translate(1.993,9.0220003)">
          <path
             d="m 5.65625,-4.0625 c 0.140625,0 0.53125,0 0.53125,-0.375 0,-0.265625 -0.234375,-0.265625 -0.421875,-0.265625 h -2.5 c -1.640625,0 -2.84375,1.796875 -2.84375,3.09375 0,0.96875 0.640625,1.734375 1.625,1.734375 1.296875,0 2.734375,-1.328125 2.734375,-3 0,-0.1875 0,-0.71875 -0.328125,-1.1875 z M 2.0625,-0.125 c -0.53125,0 -0.96875,-0.390625 -0.96875,-1.171875 0,-0.328125 0.125,-1.21875 0.515625,-1.859375 C 2.0625,-3.921875 2.71875,-4.0625 3.09375,-4.0625 c 0.90625,0 1,0.71875 1,1.046875 C 4.09375,-2.5 3.875,-1.609375 3.5,-1.046875 3.078125,-0.40625 2.484375,-0.125 2.0625,-0.125 Z m 0,0"
             id="path63" />
        </g>
      </g>
      <g
         fill="#000000"
         fill-opacity="1"
         id="g67"
         transform="matrix(0.352778,0,0,0.352778,-0.851914,-0.575513)">
        <g
           id="g66"
           transform="translate(11.648,9.0220003)">
          <path
             d="m 7.5,-3.5625 c 0.15625,0 0.359375,0 0.359375,-0.21875 C 7.859375,-4 7.65625,-4 7.5,-4 H 0.96875 c -0.15625,0 -0.359375,0 -0.359375,0.21875 0,0.21875 0.203125,0.21875 0.375,0.21875 z m 0,2.109375 c 0.15625,0 0.359375,0 0.359375,-0.21875 0,-0.21875 -0.203125,-0.21875 -0.359375,-0.21875 H 0.984375 c -0.171875,0 -0.375,0 -0.375,0.21875 0,0.21875 0.203125,0.21875 0.359375,0.21875 z m 0,0"
             id="path65" />
        </g>
      </g>
      <g
         fill="#000000"
         fill-opacity="1"
         id="g69"
         transform="matrix(0.352778,0,0,0.352778,-0.851914,-0.575513)">
        <g
           id="g68"
           transform="translate(23.165829,9.0220003)">
          <path
             d="m 5.015625,-3.484375 c 0,-0.875 -0.046875,-1.75 -0.4375,-2.5625 -0.5,-1.046875 -1.390625,-1.21875 -1.859375,-1.21875 -0.640625,0 -1.4375,0.28125 -1.890625,1.296875 -0.34375,0.75 -0.40625,1.609375 -0.40625,2.484375 0,0.8125 0.046875,1.796875 0.5,2.625 0.46875,0.875 1.265625,1.09375 1.796875,1.09375 0.578125,0 1.421875,-0.21875 1.890625,-1.265625 0.359375,-0.75 0.40625,-1.59375 0.40625,-2.453125 z M 2.71875,0 C 2.296875,0 1.640625,-0.265625 1.453125,-1.3125 c -0.125,-0.65625 -0.125,-1.671875 -0.125,-2.3125 0,-0.6875 0,-1.40625 0.09375,-2 C 1.625,-6.921875 2.4375,-7.03125 2.71875,-7.03125 c 0.359375,0 1.078125,0.203125 1.28125,1.28125 0.109375,0.609375 0.109375,1.4375 0.109375,2.125 0,0.828125 0,1.5625 -0.125,2.265625 C 3.828125,-0.328125 3.203125,0 2.71875,0 Z m 0,0"
             id="path67" />
        </g>
      </g>
      <g
         fill="#000000"
         fill-opacity="1"
         id="g71"
         transform="matrix(0.352778,0,0,0.352778,-0.851914,-0.575513)">
        <g
           id="g70"
           transform="translate(28.617001,9.0220003)">
          <path
             d="m 2.09375,-0.578125 c 0,-0.3125 -0.265625,-0.578125 -0.578125,-0.578125 -0.3125,0 -0.578125,0.265625 -0.578125,0.578125 C 0.9375,-0.265625 1.203125,0 1.515625,0 1.828125,0 2.09375,-0.265625 2.09375,-0.578125 Z m 0,0"
             id="path69" />
        </g>
      </g>
      <g
         fill="#000000"
         fill-opacity="1"
         id="g76"
         transform="matrix(0.352778,0,0,0.352778,-0.851914,-0.575513)">
        <g
           id="g72"
           transform="translate(31.648001,9.0220003)">
          <path
             d="m 5.015625,-3.484375 c 0,-0.875 -0.046875,-1.75 -0.4375,-2.5625 -0.5,-1.046875 -1.390625,-1.21875 -1.859375,-1.21875 -0.640625,0 -1.4375,0.28125 -1.890625,1.296875 -0.34375,0.75 -0.40625,1.609375 -0.40625,2.484375 0,0.8125 0.046875,1.796875 0.5,2.625 0.46875,0.875 1.265625,1.09375 1.796875,1.09375 0.578125,0 1.421875,-0.21875 1.890625,-1.265625 0.359375,-0.75 0.40625,-1.59375 0.40625,-2.453125 z M 2.71875,0 C 2.296875,0 1.640625,-0.265625 1.453125,-1.3125 c -0.125,-0.65625 -0.125,-1.671875 -0.125,-2.3125 0,-0.6875 0,-1.40625 0.09375,-2 C 1.625,-6.921875 2.4375,-7.03125 2.71875,-7.03125 c 0.359375,0 1.078125,0.203125 1.28125,1.28125 0.109375,0.609375 0.109375,1.4375 0.109375,2.125 0,0.828125 0,1.5625 -0.125,2.265625 C 3.828125,-0.328125 3.203125,0 2.71875,0 Z m 0,0"
             id="path71" />
        </g>
        <g
           id="g73"
           transform="translate(37.102551,9.0220003)">
          <path
             d="m 5.015625,-3.484375 c 0,-0.875 -0.046875,-1.75 -0.4375,-2.5625 -0.5,-1.046875 -1.390625,-1.21875 -1.859375,-1.21875 -0.640625,0 -1.4375,0.28125 -1.890625,1.296875 -0.34375,0.75 -0.40625,1.609375 -0.40625,2.484375 0,0.8125 0.046875,1.796875 0.5,2.625 0.46875,0.875 1.265625,1.09375 1.796875,1.09375 0.578125,0 1.421875,-0.21875 1.890625,-1.265625 0.359375,-0.75 0.40625,-1.59375 0.40625,-2.453125 z M 2.71875,0 C 2.296875,0 1.640625,-0.265625 1.453125,-1.3125 c -0.125,-0.65625 -0.125,-1.671875 -0.125,-2.3125 0,-0.6875 0,-1.40625 0.09375,-2 C 1.625,-6.921875 2.4375,-7.03125 2.71875,-7.03125 c 0.359375,0 1.078125,0.203125 1.28125,1.28125 0.109375,0.609375 0.109375,1.4375 0.109375,2.125 0,0.828125 0,1.5625 -0.125,2.265625 C 3.828125,-0.328125 3.203125,0 2.71875,0 Z m 0,0"
             id="path72" />
        </g>
        <g
           id="g74"
           transform="translate(42.557098,9.0220003)">
          <path
             d="m 5.015625,-3.484375 c 0,-0.875 -0.046875,-1.75 -0.4375,-2.5625 -0.5,-1.046875 -1.390625,-1.21875 -1.859375,-1.21875 -0.640625,0 -1.4375,0.28125 -1.890625,1.296875 -0.34375,0.75 -0.40625,1.609375 -0.40625,2.484375 0,0.8125 0.046875,1.796875 0.5,2.625 0.46875,0.875 1.265625,1.09375 1.796875,1.09375 0.578125,0 1.421875,-0.21875 1.890625,-1.265625 0.359375,-0.75 0.40625,-1.59375 0.40625,-2.453125 z M 2.71875,0 C 2.296875,0 1.640625,-0.265625 1.453125,-1.3125 c -0.125,-0.65625 -0.125,-1.671875 -0.125,-2.3125 0,-0.6875 0,-1.40625 0.09375,-2 C 1.625,-6.921875 2.4375,-7.03125 2.71875,-7.03125 c 0.359375,0 1.078125,0.203125 1.28125,1.28125 0.109375,0.609375 0.109375,1.4375 0.109375,2.125 0,0.828125 0,1.5625 -0.125,2.265625 C 3.828125,-0.328125 3.203125,0 2.71875,0 Z m 0,0"
             id="path73" />
        </g>
        <g
           id="g75"
           transform="translate(48.01165,9.0220003)">
          <path
             d="m 3.203125,-1.796875 v 0.953125 c 0,0.390625 -0.015625,0.5 -0.828125,0.5 H 2.15625 V 0 c 0.4375,-0.03125 1,-0.03125 1.46875,-0.03125 0.453125,0 1.03125,0 1.484375,0.03125 V -0.34375 H 4.875 c -0.8125,0 -0.828125,-0.109375 -0.828125,-0.5 v -0.953125 h 1.09375 v -0.34375 H 4.046875 V -7.09375 c 0,-0.21875 0,-0.296875 -0.171875,-0.296875 -0.09375,0 -0.140625,0 -0.21875,0.140625 L 0.3125,-2.140625 v 0.34375 z m 0.0625,-0.34375 h -2.65625 l 2.65625,-4.0625 z m 0,0"
             id="path74" />
        </g>
      </g>
    </g>
  </g>
</svg>
