<?xml version="1.0" encoding="UTF-8" standalone="no"?>
<!-- Created with Inkscape (http://www.inkscape.org/) -->

<svg
   width="16.161772mm"
   height="3.316819mm"
   viewBox="0 0 16.161773 3.316819"
   version="1.1"
   id="svg1"
   sodipodi:docname="current.svg"
   inkscape:export-filename="ISEIcutoff.png"
   inkscape:export-xdpi="639.78998"
   inkscape:export-ydpi="639.78998"
   inkscape:version="1.3.2 (091e20e, 2023-11-25, custom)"
   xmlns:inkscape="http://www.inkscape.org/namespaces/inkscape"
   xmlns:sodipodi="http://sodipodi.sourceforge.net/DTD/sodipodi-0.dtd"
   xmlns="http://www.w3.org/2000/svg"
   xmlns:svg="http://www.w3.org/2000/svg">
  <sodipodi:namedview
     id="namedview1"
     pagecolor="#505050"
     bordercolor="#ffffff"
     borderopacity="1"
     inkscape:showpageshadow="0"
     inkscape:pageopacity="0"
     inkscape:pagecheckerboard="1"
     inkscape:deskcolor="#505050"
     inkscape:document-units="mm"
     inkscape:zoom="5.066849"
     inkscape:cx="0.098680659"
     inkscape:cy="-1.6775712"
     inkscape:window-width="1920"
     inkscape:window-height="1046"
     inkscape:window-x="-11"
     inkscape:window-y="-11"
     inkscape:window-maximized="1"
     inkscape:current-layer="layer1" />
  <defs
     id="defs1" />
  <g
     inkscape:label="Layer 1"
     inkscape:groupmode="layer"
     id="layer1"
     transform="translate(-158.271, -80.488)">
    <g
       inkscape:label=""
       transform="translate(153.59755,90.957784)"
       id="g31">
      <g
         fill="#000000"
         fill-opacity="1"
         id="g1"
         transform="matrix(0.352778,0,0,0.352778,-0.851914,-0.706085)">
        <g
           id="use18"
           transform="translate(1.993,13.056)">
          <path
             d="m 5.65625,-4.0625 c 0.140625,0 0.53125,0 0.53125,-0.375 0,-0.265625 -0.234375,-0.265625 -0.421875,-0.265625 h -2.5 c -1.640625,0 -2.84375,1.796875 -2.84375,3.09375 0,0.96875 0.640625,1.734375 1.625,1.734375 1.296875,0 2.734375,-1.328125 2.734375,-3 0,-0.1875 0,-0.71875 -0.328125,-1.1875 z M 2.0625,-0.125 c -0.53125,0 -0.96875,-0.390625 -0.96875,-1.171875 0,-0.328125 0.125,-1.21875 0.515625,-1.859375 C 2.0625,-3.921875 2.71875,-4.0625 3.09375,-4.0625 c 0.90625,0 1,0.71875 1,1.046875 C 4.09375,-2.5 3.875,-1.609375 3.5,-1.046875 3.078125,-0.40625 2.484375,-0.125 2.0625,-0.125 Z m 0,0"
             id="path40" />
        </g>
      </g>
      <g
         fill="#000000"
         fill-opacity="1"
         id="g2"
         transform="matrix(0.352778,0,0,0.352778,-0.851914,-0.706085)">
        <g
           id="use19"
           transform="translate(11.648,13.056)">
          <path
             d="m 7.5,-3.5625 c 0.15625,0 0.359375,0 0.359375,-0.21875 C 7.859375,-4 7.65625,-4 7.5,-4 H 0.96875 c -0.15625,0 -0.359375,0 -0.359375,0.21875 0,0.21875 0.203125,0.21875 0.375,0.21875 z m 0,2.109375 c 0.15625,0 0.359375,0 0.359375,-0.21875 0,-0.21875 -0.203125,-0.21875 -0.359375,-0.21875 H 0.984375 c -0.171875,0 -0.375,0 -0.375,0.21875 0,0.21875 0.203125,0.21875 0.359375,0.21875 z m 0,0"
             id="path41" />
        </g>
      </g>
      <g
         fill="#000000"
         fill-opacity="1"
         id="g14"
         transform="matrix(0.352778,0,0,0.352778,-0.851914,-0.706085)">
        <g
           id="use20"
           transform="translate(24.358,7.4390001)">
          <path
             d="m 3.09375,-4.828125 c 0.0625,-0.265625 0.078125,-0.34375 0.6875,-0.34375 0.171875,0 0.28125,0 0.28125,-0.15625 0,-0.015625 -0.015625,-0.109375 -0.140625,-0.109375 -0.125,0 -0.375,0.015625 -0.5,0.015625 h -1.09375 c -0.109375,0 -0.40625,-0.015625 -0.515625,-0.015625 -0.03125,0 -0.15625,0 -0.15625,0.140625 0,0.125 0.09375,0.125 0.25,0.125 0.515625,0 0.515625,0.046875 0.515625,0.140625 0,0.015625 0,0.046875 -0.046875,0.171875 L 1.328125,-0.625 c -0.078125,0.28125 -0.09375,0.359375 -0.6875,0.359375 -0.1875,0 -0.28125,0 -0.28125,0.15625 0,0.03125 0.03125,0.109375 0.125,0.109375 0.109375,0 0.375,-0.015625 0.5,-0.03125 H 2.09375 C 2.203125,-0.015625 2.484375,0 2.59375,0 2.640625,0 2.75,0 2.75,-0.15625 c 0,-0.109375 -0.09375,-0.109375 -0.25,-0.109375 -0.125,0 -0.171875,0 -0.3125,-0.015625 C 2.0625,-0.296875 1.984375,-0.296875 1.984375,-0.390625 1.984375,-0.4375 2,-0.4375 2.03125,-0.546875 Z m 0,0"
             id="path42" />
        </g>
      </g>
      <g
         fill="#000000"
         fill-opacity="1"
         id="g15"
         transform="matrix(0.352778,0,0,0.352778,-0.851914,-0.706085)">
        <g
           id="use21"
           transform="translate(28.030001,8.8439999)">
          <path
             d="m 3.375,-4.046875 c 0,-0.09375 0,-0.171875 -0.09375,-0.171875 -0.03125,0 -0.0625,0 -0.109375,0.078125 l -0.21875,0.34375 C 2.609375,-4.125 2.171875,-4.21875 1.828125,-4.21875 c -0.78125,0 -1.359375,0.53125 -1.359375,1.15625 0,0.296875 0.140625,0.5625 0.359375,0.765625 0.265625,0.25 0.46875,0.296875 1.140625,0.4375 0.625,0.125 0.765625,0.15625 0.953125,0.328125 0.0625,0.078125 0.265625,0.265625 0.265625,0.578125 0,0.421875 -0.375,0.84375 -1,0.84375 -0.515625,0 -1.453125,-0.15625 -1.5,-1.109375 0,-0.09375 0,-0.140625 -0.09375,-0.140625 -0.125,0 -0.125,0.0625 -0.125,0.171875 v 1.140625 c 0,0.109375 0,0.171875 0.09375,0.171875 0.0625,0 0.078125,-0.015625 0.109375,-0.078125 C 0.6875,0.03125 0.8125,-0.15625 0.890625,-0.28125 1.328125,0.078125 1.90625,0.125 2.1875,0.125 c 0.828125,0 1.375,-0.59375 1.375,-1.21875 0,-0.421875 -0.234375,-0.71875 -0.3125,-0.796875 -0.3125,-0.3125 -0.484375,-0.34375 -1.234375,-0.5 C 1.828125,-2.4375 1.53125,-2.5 1.453125,-2.515625 1.140625,-2.625 0.859375,-2.890625 0.859375,-3.21875 0.859375,-3.625 1.25,-4 1.84375,-4 2.15625,-4 2.453125,-3.90625 2.703125,-3.71875 3.0625,-3.4375 3.125,-3 3.140625,-2.859375 c 0.015625,0.09375 0.03125,0.125 0.125,0.125 0.109375,0 0.109375,-0.046875 0.109375,-0.15625 z m 0,0"
             id="path43" />
        </g>
        <g
           id="use22"
           transform="translate(32.070259,8.8439999)">
          <path
             d="M 4.625,-1.59375 H 4.40625 C 4.234375,-0.671875 4.0625,-0.234375 2.9375,-0.234375 H 1.921875 C 1.625,-0.234375 1.625,-0.28125 1.625,-0.46875 V -2 h 0.640625 c 0.609375,0 0.71875,0.171875 0.71875,0.703125 H 3.21875 v -1.625 H 2.984375 c 0,0.53125 -0.109375,0.703125 -0.71875,0.703125 H 1.625 v -1.375 c 0,-0.1875 0,-0.234375 0.296875,-0.234375 H 2.875 c 1,0 1.21875,0.28125 1.328125,1.15625 h 0.21875 L 4.234375,-4.0625 h -3.84375 v 0.234375 h 0.15625 c 0.46875,0 0.46875,0.0625 0.46875,0.265625 V -0.5 c 0,0.1875 0,0.265625 -0.46875,0.265625 H 0.390625 V 0 H 4.34375 Z m 0,0"
             id="path44" />
        </g>
        <g
           id="use23"
           transform="translate(36.962925,8.8439999)">
          <path
             d="m 1.625,-3.578125 c 0,-0.203125 0,-0.28125 0.5,-0.28125 H 2.296875 V -4.09375 C 2.125,-4.078125 1.625,-4.0625 1.328125,-4.0625 c -0.3125,0 -0.8125,-0.015625 -0.96875,-0.03125 v 0.234375 H 0.53125 c 0.484375,0 0.484375,0.078125 0.484375,0.28125 V -0.5 c 0,0.1875 0,0.265625 -0.484375,0.265625 H 0.359375 V 0 c 0.15625,0 0.65625,-0.03125 0.96875,-0.03125 C 1.625,-0.03125 2.125,0 2.296875,0 V -0.234375 H 2.125 c -0.5,0 -0.5,-0.078125 -0.5,-0.265625 z m 0,0"
             id="path45" />
        </g>
      </g>
      <g
         fill="#000000"
         fill-opacity="1"
         id="g24"
         transform="matrix(0.352778,0,0,0.352778,-0.851914,-0.706085)">
        <g
           id="use24"
           transform="translate(39.609001,8.8439999)">
          <path
             d="m 4.765625,-1.34375 c 0.09375,0 0.25,0 0.25,-0.15625 0,-0.15625 -0.15625,-0.15625 -0.25,-0.15625 H 1 c -0.109375,0 -0.25,0 -0.25,0.15625 0,0.15625 0.140625,0.15625 0.25,0.15625 z m 0,0"
             id="path46" />
        </g>
      </g>
      <g
         fill="#000000"
         fill-opacity="1"
         id="g29"
         transform="matrix(0.352778,0,0,0.352778,-0.851914,-0.706085)">
        <g
           id="use25"
           transform="translate(45.365002,8.8439999)">
          <path
             d="m 2.453125,-2.40625 c -0.0625,0.03125 -0.125,0.109375 -0.125,0.234375 0,0.15625 0.109375,0.296875 0.28125,0.296875 0.1875,0 0.296875,-0.140625 0.296875,-0.296875 0,-0.484375 -0.625,-0.5 -1.015625,-0.5 -1.09375,0 -1.5625,0.796875 -1.5625,1.375 0,0.75 0.65625,1.359375 1.5,1.359375 0.953125,0 1.15625,-0.71875 1.15625,-0.78125 0,-0.078125 -0.09375,-0.078125 -0.109375,-0.078125 -0.078125,0 -0.09375,0.03125 -0.109375,0.078125 -0.046875,0.09375 -0.109375,0.265625 -0.3125,0.40625 -0.125,0.09375 -0.328125,0.15625 -0.5625,0.15625 -0.453125,0 -1,-0.328125 -1,-1.140625 0,-0.265625 0.046875,-0.59375 0.265625,-0.84375 0.265625,-0.3125 0.578125,-0.3125 0.765625,-0.3125 0.171875,0 0.375,0 0.53125,0.046875 z m 0,0"
             id="path47" />
        </g>
        <g
           id="use26"
           transform="translate(48.630562,8.8439999)">
          <path
             d="m 2.296875,-2.578125 v 0.234375 c 0.421875,0 0.484375,0.046875 0.484375,0.34375 v 1 c 0,0.546875 -0.375,0.875 -0.84375,0.875 -0.5625,0 -0.59375,-0.265625 -0.59375,-0.546875 v -1.96875 l -0.96875,0.0625 v 0.234375 c 0.46875,0 0.46875,0.0625 0.46875,0.40625 V -1 c 0,0.40625 0,0.671875 0.28125,0.875 0.21875,0.15625 0.515625,0.1875 0.765625,0.1875 0.390625,0 0.703125,-0.15625 0.90625,-0.5 v 0.5 L 3.75,0 v -0.234375 c -0.421875,0 -0.484375,-0.046875 -0.484375,-0.328125 v -2.078125 z m 0,0"
             id="path48" />
        </g>
        <g
           id="use27"
           transform="translate(52.670822,8.8439999)">
          <path
             d="M 1.296875,-2.34375 H 2.28125 V -2.578125 H 1.296875 V -3.6875 h -0.21875 c 0,0.546875 -0.265625,1.125 -0.859375,1.15625 v 0.1875 H 0.8125 V -0.75 c 0,0.625 0.46875,0.8125 0.875,0.8125 0.40625,0 0.71875,-0.328125 0.71875,-0.8125 V -1.078125 H 2.171875 v 0.3125 c 0,0.421875 -0.21875,0.609375 -0.4375,0.609375 -0.4375,0 -0.4375,-0.484375 -0.4375,-0.59375 z m 0,0"
             id="path49" />
        </g>
        <g
           id="use28"
           transform="translate(55.549038,8.8439999)">
          <path
             d="m 3.359375,-1.28125 c 0,-0.734375 -0.671875,-1.390625 -1.53125,-1.390625 -0.875,0 -1.546875,0.65625 -1.546875,1.390625 0,0.734375 0.6875,1.34375 1.546875,1.34375 0.859375,0 1.53125,-0.609375 1.53125,-1.34375 z m -1.53125,1.125 c -0.96875,0 -0.96875,-0.890625 -0.96875,-1.171875 0,-0.1875 0,-0.59375 0.21875,-0.84375 0.203125,-0.21875 0.453125,-0.3125 0.75,-0.3125 0.28125,0 0.546875,0.09375 0.75,0.3125 0.21875,0.25 0.21875,0.65625 0.21875,0.84375 0,0.28125 0,1.171875 -0.96875,1.171875 z m 0,0"
             id="path22" />
        </g>
        <g
           id="use29"
           transform="translate(59.201946,8.8439999)">
          <path
             d="M 3.390625,-2.34375 H 4.1875 V -2.578125 H 3.359375 v -0.65625 c 0,-0.546875 0.328125,-0.78125 0.609375,-0.78125 C 4.046875,-4.015625 4.109375,-4 4.140625,-4 4.09375,-3.96875 4.03125,-3.921875 4.03125,-3.765625 c 0,0.15625 0.109375,0.28125 0.28125,0.28125 0.171875,0 0.28125,-0.125 0.28125,-0.28125 0,-0.28125 -0.265625,-0.453125 -0.625,-0.453125 -0.1875,0 -0.46875,0.046875 -0.71875,0.25 -0.171875,-0.171875 -0.46875,-0.25 -0.84375,-0.25 -0.703125,0 -1.59375,0.296875 -1.59375,1 v 0.640625 H 0.265625 V -2.34375 H 0.8125 v 1.859375 c 0,0.25 -0.046875,0.25 -0.46875,0.25 V 0 C 0.53125,-0.015625 1,-0.03125 1.046875,-0.03125 c 0.25,0 0.484375,0.015625 0.71875,0.03125 v -0.234375 c -0.40625,0 -0.46875,0 -0.46875,-0.25 V -2.34375 h 1.625 v 1.859375 c 0,0.25 -0.0625,0.25 -0.484375,0.25 V 0 C 2.59375,-0.015625 3.03125,-0.03125 3.171875,-0.03125 3.484375,-0.03125 3.890625,0 3.96875,0 v -0.234375 h -0.125 c -0.453125,0 -0.453125,-0.0625 -0.453125,-0.265625 z m -2.125,-0.234375 V -3.21875 c 0,-0.578125 0.625,-0.796875 1.125,-0.796875 0.0625,0 0.34375,0 0.546875,0.078125 -0.015625,0 -0.15625,0.078125 -0.15625,0.25 0,0.078125 0.03125,0.1875 0.15625,0.25 -0.015625,0.0625 -0.015625,0.140625 -0.015625,0.203125 v 0.65625 z m 0,0"
             id="path51" />
        </g>
      </g>
      <path
         fill="none"
         stroke-width="0.436"
         stroke-linecap="butt"
         stroke-linejoin="miter"
         stroke="#000000"
         stroke-opacity="1"
         stroke-miterlimit="10"
         d="M 21.9445,8.3266249 H 62.171062"
         id="path29"
         transform="scale(0.352778)" />
      <g
         fill="#000000"
         fill-opacity="1"
         id="g30"
         transform="matrix(0.352778,0,0,0.352778,-0.851914,-0.706085)">
        <g
           id="use30"
           transform="translate(25.943001,16.818001)">
          <path
             d="m 3.09375,-4.828125 c 0.0625,-0.265625 0.078125,-0.34375 0.6875,-0.34375 0.171875,0 0.28125,0 0.28125,-0.15625 0,-0.015625 -0.015625,-0.109375 -0.140625,-0.109375 -0.125,0 -0.375,0.015625 -0.5,0.015625 h -1.09375 c -0.109375,0 -0.40625,-0.015625 -0.515625,-0.015625 -0.03125,0 -0.15625,0 -0.15625,0.140625 0,0.125 0.09375,0.125 0.25,0.125 0.515625,0 0.515625,0.046875 0.515625,0.140625 0,0.015625 0,0.046875 -0.046875,0.171875 L 1.328125,-0.625 c -0.078125,0.28125 -0.09375,0.359375 -0.6875,0.359375 -0.1875,0 -0.28125,0 -0.28125,0.15625 0,0.03125 0.03125,0.109375 0.125,0.109375 0.109375,0 0.375,-0.015625 0.5,-0.03125 H 2.09375 C 2.203125,-0.015625 2.484375,0 2.59375,0 2.640625,0 2.75,0 2.75,-0.15625 c 0,-0.109375 -0.09375,-0.109375 -0.25,-0.109375 -0.125,0 -0.171875,0 -0.3125,-0.015625 C 2.0625,-0.296875 1.984375,-0.296875 1.984375,-0.390625 1.984375,-0.4375 2,-0.4375 2.03125,-0.546875 Z m 0,0"
             id="path23" />
        </g>
      </g>
      <g
         fill="#000000"
         fill-opacity="1"
         id="g33"
         transform="matrix(0.352778,0,0,0.352778,-0.851914,-0.706085)">
        <g
           id="use31"
           transform="translate(29.614,18.224001)">
          <path
             d="m 2.28125,-4.09375 v 0.234375 c 0.40625,0 0.46875,0.046875 0.46875,0.34375 v 1.21875 c -0.265625,-0.234375 -0.5625,-0.34375 -0.890625,-0.34375 -0.828125,0 -1.53125,0.59375 -1.53125,1.359375 0,0.734375 0.65625,1.34375 1.46875,1.34375 0.359375,0 0.671875,-0.140625 0.921875,-0.375 v 0.375 L 3.6875,0 v -0.234375 c -0.421875,0 -0.46875,-0.046875 -0.46875,-0.328125 v -3.59375 z m 0.4375,3.328125 c 0,0.109375 0,0.125 -0.09375,0.25 C 2.328125,-0.15625 1.9375,-0.125 1.828125,-0.125 c -0.25,0 -0.5,-0.109375 -0.703125,-0.328125 -0.1875,-0.234375 -0.234375,-0.5625 -0.234375,-0.828125 0,-1.09375 0.796875,-1.171875 1.015625,-1.171875 0.203125,0 0.5,0.078125 0.734375,0.328125 C 2.71875,-2.015625 2.71875,-2 2.71875,-1.890625 Z m 0,0"
             id="path53" />
        </g>
        <g
           id="use32"
           transform="translate(33.654259,18.224001)">
          <path
             d="m 2.8125,-1.359375 c 0.125,0 0.171875,0 0.171875,-0.140625 0,-0.453125 -0.25,-1.171875 -1.25,-1.171875 -0.84375,0 -1.453125,0.640625 -1.453125,1.359375 0,0.75 0.6875,1.375 1.53125,1.375 0.875,0 1.171875,-0.65625 1.171875,-0.78125 0,-0.03125 -0.015625,-0.09375 -0.109375,-0.09375 -0.078125,0 -0.09375,0.03125 -0.109375,0.109375 -0.1875,0.4375 -0.640625,0.546875 -0.90625,0.546875 -0.328125,0 -0.609375,-0.140625 -0.78125,-0.359375 -0.21875,-0.28125 -0.21875,-0.671875 -0.21875,-0.84375 z M 0.875,-1.53125 c 0.0625,-0.796875 0.609375,-0.953125 0.859375,-0.953125 0.765625,0 0.8125,0.78125 0.8125,0.953125 z m 0,0"
             id="path24" />
        </g>
        <g
           id="use33"
           transform="translate(36.919823,18.224001)">
          <path
             d="m 1.796875,0.921875 c -0.421875,0 -0.484375,0 -0.484375,-0.25 V -0.28125 C 1.5625,-0.046875 1.84375,0.0625 2.171875,0.0625 3,0.0625 3.71875,-0.53125 3.71875,-1.296875 c 0,-0.71875 -0.625,-1.34375 -1.453125,-1.34375 -0.546875,0 -0.890625,0.265625 -0.96875,0.359375 v -0.359375 l -0.953125,0.0625 v 0.234375 c 0.40625,0 0.46875,0 0.46875,0.28125 v 2.734375 c 0,0.25 -0.046875,0.25 -0.46875,0.25 V 1.15625 c 0.046875,0 0.453125,-0.015625 0.71875,-0.015625 0.265625,0 0.671875,0.015625 0.734375,0.015625 z M 1.3125,-1.984375 c 0.203125,-0.28125 0.53125,-0.4375 0.890625,-0.4375 0.546875,0 0.9375,0.515625 0.9375,1.125 0,0.671875 -0.46875,1.171875 -1,1.171875 -0.46875,0 -0.734375,-0.328125 -0.828125,-0.515625 z m 0,0"
             id="path55" />
        </g>
      </g>
      <g
         fill="#000000"
         fill-opacity="1"
         id="g36"
         transform="matrix(0.352778,0,0,0.352778,-0.851914,-0.706085)">
        <g
           id="use34"
           transform="translate(41.151367,18.224001)">
          <path
             d="m 3.359375,-1.28125 c 0,-0.734375 -0.671875,-1.390625 -1.53125,-1.390625 -0.875,0 -1.546875,0.65625 -1.546875,1.390625 0,0.734375 0.6875,1.34375 1.546875,1.34375 0.859375,0 1.53125,-0.609375 1.53125,-1.34375 z m -1.53125,1.125 c -0.96875,0 -0.96875,-0.890625 -0.96875,-1.171875 0,-0.1875 0,-0.59375 0.21875,-0.84375 0.203125,-0.21875 0.453125,-0.3125 0.75,-0.3125 0.28125,0 0.546875,0.09375 0.75,0.3125 0.21875,0.25 0.21875,0.65625 0.21875,0.84375 0,0.28125 0,1.171875 -0.96875,1.171875 z m 0,0"
             id="path25" />
        </g>
        <g
           id="use35"
           transform="translate(44.804276,18.224001)">
          <path
             d="m 2.421875,-2.5 c 0,-0.109375 0,-0.171875 -0.09375,-0.171875 -0.03125,0 -0.046875,0 -0.125,0.078125 C 2.1875,-2.578125 2.171875,-2.578125 2.09375,-2.5 1.859375,-2.65625 1.5625,-2.671875 1.4375,-2.671875 c -0.9375,0 -1.125,0.46875 -1.125,0.75 0,0.578125 0.703125,0.6875 1.171875,0.765625 0.265625,0.046875 0.78125,0.125 0.78125,0.515625 0,0.234375 -0.171875,0.515625 -0.78125,0.515625 -0.578125,0 -0.8125,-0.34375 -0.9375,-0.796875 C 0.53125,-0.96875 0.515625,-1 0.4375,-1 c -0.125,0 -0.125,0.046875 -0.125,0.171875 v 0.71875 c 0,0.109375 0,0.171875 0.09375,0.171875 0.046875,0 0.046875,-0.015625 0.15625,-0.109375 l 0.140625,-0.15625 C 1,0.0625 1.359375,0.0625 1.484375,0.0625 c 0.875,0 1.109375,-0.484375 1.109375,-0.828125 0,-0.25 -0.109375,-0.421875 -0.25,-0.53125 C 2.09375,-1.53125 1.859375,-1.5625 1.5,-1.625 1.046875,-1.703125 0.640625,-1.765625 0.640625,-2.078125 0.640625,-2.25 0.8125,-2.5 1.4375,-2.5 c 0.40625,0 0.734375,0.15625 0.765625,0.578125 0,0.078125 0.015625,0.125 0.109375,0.125 0.109375,0 0.109375,-0.046875 0.109375,-0.15625 z m 0,0"
             id="path57" />
        </g>
        <g
           id="use36"
           transform="translate(47.721348,18.224001)">
          <path
             d="m 1.359375,-3.6875 c 0,-0.171875 -0.15625,-0.359375 -0.359375,-0.359375 -0.1875,0 -0.359375,0.140625 -0.359375,0.359375 0,0.21875 0.171875,0.359375 0.359375,0.359375 0.203125,0 0.359375,-0.171875 0.359375,-0.359375 z M 0.40625,-2.578125 v 0.234375 c 0.390625,0 0.453125,0.046875 0.453125,0.34375 v 1.515625 c 0,0.25 -0.0625,0.25 -0.46875,0.25 V 0 c 0.171875,-0.015625 0.625,-0.03125 0.6875,-0.03125 0.0625,0 0.515625,0.015625 0.671875,0.03125 v -0.234375 c -0.375,0 -0.421875,0 -0.421875,-0.25 v -2.15625 z m 0,0"
             id="path26" />
        </g>
      </g>
      <g
         fill="#000000"
         fill-opacity="1"
         id="g37"
         transform="matrix(0.352778,0,0,0.352778,-0.851914,-0.706085)">
        <g
           id="use37"
           transform="translate(49.830242,18.224001)">
          <path
             d="M 1.296875,-2.34375 H 2.28125 V -2.578125 H 1.296875 V -3.6875 h -0.21875 c 0,0.546875 -0.265625,1.125 -0.859375,1.15625 v 0.1875 H 0.8125 V -0.75 c 0,0.625 0.46875,0.8125 0.875,0.8125 0.40625,0 0.71875,-0.328125 0.71875,-0.8125 V -1.078125 H 2.171875 v 0.3125 c 0,0.421875 -0.21875,0.609375 -0.4375,0.609375 -0.4375,0 -0.4375,-0.484375 -0.4375,-0.59375 z m 0,0"
             id="path27" />
        </g>
      </g>
      <g
         fill="#000000"
         fill-opacity="1"
         id="g38"
         transform="matrix(0.352778,0,0,0.352778,-0.851914,-0.706085)">
        <g
           id="use38"
           transform="translate(52.70248,18.224001)">
          <path
             d="m 1.359375,-3.6875 c 0,-0.171875 -0.15625,-0.359375 -0.359375,-0.359375 -0.1875,0 -0.359375,0.140625 -0.359375,0.359375 0,0.21875 0.171875,0.359375 0.359375,0.359375 0.203125,0 0.359375,-0.171875 0.359375,-0.359375 z M 0.40625,-2.578125 v 0.234375 c 0.390625,0 0.453125,0.046875 0.453125,0.34375 v 1.515625 c 0,0.25 -0.0625,0.25 -0.46875,0.25 V 0 c 0.171875,-0.015625 0.625,-0.03125 0.6875,-0.03125 0.0625,0 0.515625,0.015625 0.671875,0.03125 v -0.234375 c -0.375,0 -0.421875,0 -0.421875,-0.25 v -2.15625 z m 0,0"
             id="path28" />
        </g>
      </g>
      <g
         fill="#000000"
         fill-opacity="1"
         id="g40"
         transform="matrix(0.352778,0,0,0.352778,-0.851914,-0.706085)">
        <g
           id="use39"
           transform="translate(54.811378,18.224001)">
          <path
             d="m 3.359375,-1.28125 c 0,-0.734375 -0.671875,-1.390625 -1.53125,-1.390625 -0.875,0 -1.546875,0.65625 -1.546875,1.390625 0,0.734375 0.6875,1.34375 1.546875,1.34375 0.859375,0 1.53125,-0.609375 1.53125,-1.34375 z m -1.53125,1.125 c -0.96875,0 -0.96875,-0.890625 -0.96875,-1.171875 0,-0.1875 0,-0.59375 0.21875,-0.84375 0.203125,-0.21875 0.453125,-0.3125 0.75,-0.3125 0.28125,0 0.546875,0.09375 0.75,0.3125 0.21875,0.25 0.21875,0.65625 0.21875,0.84375 0,0.28125 0,1.171875 -0.96875,1.171875 z m 0,0"
             id="path30" />
        </g>
        <g
           id="use40"
           transform="translate(58.464291,18.224001)">
          <path
             d="m 3.265625,-1.8125 c 0,-0.578125 -0.328125,-0.828125 -0.9375,-0.828125 -0.515625,0 -0.84375,0.28125 -1.03125,0.5625 v -0.5625 L 0.375,-2.578125 v 0.234375 c 0.421875,0 0.46875,0.046875 0.46875,0.34375 v 1.515625 c 0,0.25 -0.046875,0.25 -0.46875,0.25 V 0 C 0.421875,0 0.828125,-0.03125 1.09375,-0.03125 1.359375,-0.03125 1.765625,0 1.8125,0 v -0.234375 c -0.40625,0 -0.46875,0 -0.46875,-0.25 v -1.0625 c 0,-0.65625 0.5625,-0.90625 0.9375,-0.90625 0.40625,0 0.5,0.25 0.5,0.625 v 1.34375 c 0,0.25 -0.0625,0.25 -0.484375,0.25 V 0 C 2.34375,0 2.75,-0.03125 3.015625,-0.03125 3.296875,-0.03125 3.6875,0 3.75,0 v -0.234375 c -0.421875,0 -0.484375,0 -0.484375,-0.25 z m 0,0"
             id="path62" />
        </g>
      </g>
    </g>
    <g
       inkscape:label=""
       transform="translate(158.271,80.487967)"
       id="g42">
      <g
         fill="#000000"
         fill-opacity="1"
         id="g11"
         transform="matrix(0.352778,0,0,0.352778,-0.835378,-0.703395)">
        <g
           id="use10"
           transform="translate(1.993,9.4469995)">
          <path
             d="m 4.078125,-6.609375 c 0.09375,-0.390625 0.125,-0.5 1,-0.5 0.25,0 0.34375,0 0.34375,-0.203125 0,-0.140625 -0.125,-0.140625 -0.171875,-0.140625 -0.3125,0 -1.109375,0.03125 -1.4375,0.03125 -0.328125,0 -1.125,-0.03125 -1.453125,-0.03125 -0.0625,0 -0.203125,0 -0.203125,0.21875 0,0.125 0.09375,0.125 0.296875,0.125 0.453125,0 0.75,0 0.75,0.203125 0,0.0625 0,0.078125 -0.015625,0.171875 L 1.71875,-0.84375 c -0.109375,0.390625 -0.140625,0.5 -1,0.5 -0.25,0 -0.34375,0 -0.34375,0.21875 C 0.375,0 0.5,0 0.53125,0 0.84375,0 1.640625,-0.03125 1.96875,-0.03125 2.296875,-0.03125 3.09375,0 3.421875,0 c 0.09375,0 0.21875,0 0.21875,-0.203125 0,-0.140625 -0.078125,-0.140625 -0.328125,-0.140625 -0.1875,0 -0.25,0 -0.46875,-0.015625 -0.21875,-0.015625 -0.265625,-0.0625 -0.265625,-0.1875 0,-0.078125 0.015625,-0.171875 0.046875,-0.25 z m 0,0"
             id="path19" />
        </g>
      </g>
      <g
         fill="#000000"
         fill-opacity="1"
         id="g13"
         transform="matrix(0.352778,0,0,0.352778,-0.835378,-0.703395)">
        <g
           id="use11"
           transform="translate(6.7880001,11.224)">
          <path
             d="M 1.859375,-3.328125 C 1.34375,-3.4375 0.96875,-3.84375 0.96875,-4.328125 0.96875,-4.875 1.4375,-5.375 2.125,-5.375 c 1.375,0 1.5625,1.296875 1.609375,1.59375 0.015625,0.09375 0.015625,0.140625 0.125,0.140625 0.125,0 0.125,-0.046875 0.125,-0.203125 v -1.5625 c 0,-0.125 0,-0.203125 -0.109375,-0.203125 -0.0625,0 -0.078125,0.015625 -0.125,0.109375 l -0.28125,0.453125 c -0.40625,-0.4375 -0.90625,-0.5625 -1.34375,-0.5625 -0.953125,0 -1.65625,0.71875 -1.65625,1.53125 0,0.609375 0.34375,0.9375 0.5,1.09375 0.28125,0.28125 0.546875,0.34375 1.40625,0.546875 0.6875,0.15625 0.796875,0.1875 1.0625,0.46875 0.078125,0.078125 0.28125,0.34375 0.28125,0.734375 0,0.5625 -0.421875,1.140625 -1.171875,1.140625 -0.875,0 -1.78125,-0.421875 -1.828125,-1.53125 -0.015625,-0.125 -0.015625,-0.1875 -0.125,-0.1875 -0.125,0 -0.125,0.0625 -0.125,0.21875 v 1.546875 c 0,0.140625 0,0.21875 0.109375,0.21875 0.0625,0 0.0625,-0.015625 0.125,-0.09375 0.03125,-0.046875 0.0625,-0.125 0.28125,-0.453125 0.5,0.4375 1.09375,0.546875 1.578125,0.546875 0.984375,0 1.65625,-0.796875 1.65625,-1.640625 0,-0.703125 -0.453125,-1.40625 -1.265625,-1.59375 z m 0,0"
             id="path20" />
        </g>
        <g
           id="use12"
           transform="translate(11.49275,11.224)">
          <path
             d="m 5.515625,-2.078125 h -0.25 c -0.203125,1.203125 -0.375,1.8125 -1.8125,1.8125 h -1.1875 c -0.359375,0 -0.375,-0.046875 -0.375,-0.328125 V -2.6875 H 2.65625 c 0.796875,0 0.90625,0.234375 0.90625,0.9375 h 0.25 v -2.125 h -0.25 c 0,0.6875 -0.109375,0.921875 -0.90625,0.921875 H 1.890625 v -1.875 c 0,-0.265625 0.015625,-0.328125 0.375,-0.328125 H 3.40625 c 1.3125,0 1.484375,0.484375 1.625,1.546875 h 0.25 l -0.234375,-1.8125 H 0.34375 v 0.265625 h 0.1875 c 0.609375,0 0.625,0.09375 0.625,0.390625 v 4.125 c 0,0.296875 -0.015625,0.375 -0.625,0.375 H 0.34375 V 0 h 4.8125 z m 0,0"
             id="path21" />
        </g>
        <g
           id="use13"
           transform="translate(17.251944,11.224)">
          <path
             d="m 1.890625,-4.796875 c 0,-0.296875 0.015625,-0.375 0.65625,-0.375 h 0.1875 V -5.4375 c -0.640625,0.015625 -0.65625,0.015625 -1.21875,0.015625 -0.546875,0 -0.5625,0 -1.203125,-0.015625 v 0.265625 H 0.5 c 0.625,0 0.65625,0.078125 0.65625,0.375 v 4.15625 c 0,0.296875 -0.03125,0.375 -0.65625,0.375 H 0.3125 V 0 c 0.640625,-0.03125 0.65625,-0.03125 1.203125,-0.03125 0.5625,0 0.578125,0 1.21875,0.03125 v -0.265625 h -0.1875 c -0.640625,0 -0.65625,-0.078125 -0.65625,-0.375 z m 0,0"
             id="path31" />
        </g>
      </g>
      <g
         fill="#000000"
         fill-opacity="1"
         id="g32"
         transform="matrix(0.352778,0,0,0.352778,-0.835378,-0.703395)">
        <g
           id="use14"
           transform="translate(20.301001,11.224)">
          <path
             d="m 5.5625,-1.8125 c 0.140625,0 0.3125,0 0.3125,-0.171875 0,-0.1875 -0.171875,-0.1875 -0.3125,-0.1875 H 1 c -0.125,0 -0.296875,0 -0.296875,0.1875 C 0.703125,-1.8125 0.875,-1.8125 1,-1.8125 Z m 0,0"
             id="path32" />
        </g>
      </g>
      <g
         fill="#000000"
         fill-opacity="1"
         id="g19"
         transform="matrix(0.352778,0,0,0.352778,-0.835378,-0.703395)">
        <g
           id="use15"
           transform="translate(26.888,11.224)">
          <path
             d="m 2.9375,-3.15625 c -0.234375,0.0625 -0.265625,0.25 -0.265625,0.34375 0,0.21875 0.15625,0.375 0.375,0.375 0.21875,0 0.375,-0.140625 0.375,-0.390625 0,-0.484375 -0.53125,-0.71875 -1.28125,-0.71875 -1.109375,0 -1.859375,0.875 -1.859375,1.828125 0,1.015625 0.828125,1.796875 1.828125,1.796875 1.125,0 1.40625,-0.9375 1.40625,-1.03125 0,-0.09375 -0.109375,-0.09375 -0.125,-0.09375 -0.0625,0 -0.09375,0 -0.125,0.078125 -0.046875,0.171875 -0.28125,0.796875 -1.078125,0.796875 -0.484375,0 -1.203125,-0.375 -1.203125,-1.5625 0,-1.140625 0.59375,-1.578125 1.171875,-1.578125 0.078125,0 0.5,0 0.78125,0.15625 z m 0,0"
             id="path33" />
        </g>
        <g
           id="use16"
           transform="translate(30.651482,11.224)">
          <path
             d="m 2.65625,-3.421875 v 0.265625 c 0.546875,0 0.609375,0.046875 0.609375,0.4375 v 1.390625 c 0,0.6875 -0.40625,1.1875 -1.015625,1.1875 -0.6875,0 -0.71875,-0.34375 -0.71875,-0.75 v -2.625 l -1.203125,0.09375 v 0.265625 c 0.609375,0 0.609375,0.015625 0.609375,0.71875 v 1.203125 c 0,0.578125 0,1.3125 1.265625,1.3125 0.75,0 1.046875,-0.578125 1.078125,-0.640625 H 3.296875 V 0.078125 L 4.484375,0 V -0.265625 C 3.9375,-0.265625 3.875,-0.3125 3.875,-0.703125 v -2.8125 z m 0,0"
             id="path34" />
        </g>
        <g
           id="use17"
           transform="translate(35.356232,11.224)">
          <path
             d="m 1.484375,-3.171875 h 1.1875 V -3.4375 h -1.1875 v -1.46875 h -0.25 c 0,0.734375 -0.328125,1.484375 -1.078125,1.515625 v 0.21875 H 0.875 V -1 c 0,0.9375 0.71875,1.078125 1.078125,1.078125 C 2.5,0.078125 2.8125,-0.390625 2.8125,-1 v -0.4375 h -0.25 v 0.421875 c 0,0.546875 -0.25,0.84375 -0.546875,0.84375 -0.53125,0 -0.53125,-0.6875 -0.53125,-0.8125 z m 0,0"
             id="path35" />
        </g>
        <g
           id="g39"
           transform="translate(38.649475,11.224)">
          <path
             d="m 3.984375,-1.703125 c 0,-0.984375 -0.828125,-1.84375 -1.875,-1.84375 -1.046875,0 -1.875,0.859375 -1.875,1.84375 0,1 0.859375,1.78125 1.875,1.78125 1.03125,0 1.875,-0.78125 1.875,-1.78125 z m -1.875,1.53125 C 1.6875,-0.171875 1.34375,-0.375 1.171875,-0.65625 0.96875,-0.984375 0.953125,-1.375 0.953125,-1.765625 c 0,-0.3125 0,-0.78125 0.234375,-1.125 0.21875,-0.28125 0.546875,-0.4375 0.921875,-0.4375 0.421875,0 0.765625,0.203125 0.9375,0.46875 0.21875,0.34375 0.234375,0.765625 0.234375,1.09375 0,0.359375 -0.015625,0.796875 -0.25,1.140625 -0.203125,0.3125 -0.5625,0.453125 -0.921875,0.453125 z m 0,0"
             id="path36" />
        </g>
        <g
           id="g41"
           transform="translate(42.883991,11.224)">
          <path
             d="M 3.8125,-3.171875 H 4.765625 V -3.4375 H 3.78125 v -0.890625 c 0,-0.71875 0.40625,-1.0625 0.75,-1.0625 0.03125,0 0.125,0 0.234375,0.046875 -0.140625,0.0625 -0.1875,0.203125 -0.1875,0.3125 0,0.203125 0.15625,0.359375 0.359375,0.359375 0.21875,0 0.359375,-0.15625 0.359375,-0.359375 0,-0.34375 -0.328125,-0.578125 -0.75,-0.578125 C 4.25,-5.609375 3.90625,-5.5 3.640625,-5.28125 3.375,-5.59375 2.90625,-5.609375 2.6875,-5.609375 c -0.796875,0 -1.796875,0.390625 -1.796875,1.296875 v 0.875 h -0.65625 v 0.265625 h 0.65625 V -0.625 c 0,0.359375 -0.109375,0.359375 -0.609375,0.359375 V 0 c 0.3125,-0.03125 0.75,-0.03125 0.890625,-0.03125 0.15625,0 0.59375,0 0.90625,0.03125 v -0.265625 c -0.515625,0 -0.609375,0 -0.609375,-0.359375 V -3.171875 H 3.234375 V -0.625 c 0,0.359375 -0.109375,0.359375 -0.609375,0.359375 V 0 c 0.3125,-0.03125 0.75,-0.03125 0.9375,-0.03125 0.46875,0 0.484375,0 1,0.03125 V -0.265625 H 4.40625 c -0.578125,0 -0.59375,-0.078125 -0.59375,-0.375 z M 1.4375,-3.4375 v -0.859375 c 0,-0.78125 0.703125,-1.09375 1.234375,-1.09375 0.078125,0 0.375,0 0.609375,0.125 C 3.078125,-5.171875 3.046875,-5 3.046875,-4.921875 c 0,0.0625 0.015625,0.234375 0.203125,0.3125 -0.015625,0.09375 -0.015625,0.25 -0.015625,0.28125 V -3.4375 Z m 0,0"
             id="path39" />
        </g>
      </g>
    </g>
    <g
       inkscape:label=""
       transform="translate(158.297, 80.0441)"
       id="g68">
      <g
         fill="#000000"
         fill-opacity="1"
         id="g10"
         transform="matrix(0.352778 0 0 0.352778 -0.835378 -0.703395)">
        <g
           id="use9"
           transform="translate(1.993,9.4469995)">
          <path
             d="m 4.078125,-6.609375 c 0.09375,-0.390625 0.125,-0.5 1,-0.5 0.25,0 0.34375,0 0.34375,-0.203125 0,-0.140625 -0.125,-0.140625 -0.171875,-0.140625 -0.3125,0 -1.109375,0.03125 -1.4375,0.03125 -0.328125,0 -1.125,-0.03125 -1.453125,-0.03125 -0.0625,0 -0.203125,0 -0.203125,0.21875 0,0.125 0.09375,0.125 0.296875,0.125 0.453125,0 0.75,0 0.75,0.203125 0,0.0625 0,0.078125 -0.015625,0.171875 L 1.71875,-0.84375 c -0.109375,0.390625 -0.140625,0.5 -1,0.5 -0.25,0 -0.34375,0 -0.34375,0.21875 C 0.375,0 0.5,0 0.53125,0 0.84375,0 1.640625,-0.03125 1.96875,-0.03125 2.296875,-0.03125 3.09375,0 3.421875,0 c 0.09375,0 0.21875,0 0.21875,-0.203125 0,-0.140625 -0.078125,-0.140625 -0.328125,-0.140625 -0.1875,0 -0.25,0 -0.46875,-0.015625 -0.21875,-0.015625 -0.265625,-0.0625 -0.265625,-0.1875 0,-0.078125 0.015625,-0.171875 0.046875,-0.25 z m 0,0"
             id="path50" />
        </g>
      </g>
      <g
         fill="#000000"
         fill-opacity="1"
         id="g12"
         transform="matrix(0.352778 0 0 0.352778 -0.835378 -0.703395)">
        <g
           id="g52"
           transform="translate(6.7880001,11.225)">
          <path
             d="m 2.625,-5.4375 v 0.265625 c 0.53125,0 0.609375,0.046875 0.609375,0.4375 v 1.6875 c -0.28125,-0.3125 -0.65625,-0.46875 -1.078125,-0.46875 -1,0 -1.875,0.78125 -1.875,1.796875 0,0.984375 0.796875,1.796875 1.796875,1.796875 0.46875,0 0.859375,-0.21875 1.125,-0.5 v 0.5 L 4.421875,0 V -0.265625 C 3.875,-0.265625 3.8125,-0.3125 3.8125,-0.703125 V -5.53125 Z m 0.578125,4.453125 c 0,0.140625 0,0.171875 -0.125,0.328125 C 2.859375,-0.328125 2.5,-0.140625 2.125,-0.140625 1.75,-0.140625 1.4375,-0.328125 1.25,-0.625 1.03125,-0.9375 0.984375,-1.328125 0.984375,-1.703125 0.984375,-2.171875 1.0625,-2.5 1.25,-2.765625 c 0.1875,-0.296875 0.546875,-0.53125 0.953125,-0.53125 0.375,0 0.765625,0.203125 1,0.609375 z m 0,0"
             id="path52" />
        </g>
        <g
           id="g54"
           transform="translate(11.49275,11.225)">
          <path
             d="m 3.296875,-1.8125 c 0.171875,0 0.21875,0 0.21875,-0.1875 C 3.515625,-2.703125 3.125,-3.546875 2,-3.546875 c -0.984375,0 -1.765625,0.8125 -1.765625,1.796875 0,1.03125 0.859375,1.828125 1.875,1.828125 1,0 1.40625,-0.84375 1.40625,-1.03125 0,-0.03125 -0.03125,-0.109375 -0.125,-0.109375 -0.09375,0 -0.109375,0.046875 -0.125,0.09375 -0.28125,0.78125 -0.96875,0.796875 -1.109375,0.796875 -0.359375,0 -0.734375,-0.15625 -0.96875,-0.53125 C 0.953125,-1.0625 0.953125,-1.578125 0.953125,-1.8125 Z M 0.953125,-2.03125 C 1.03125,-3.140625 1.703125,-3.328125 2,-3.328125 c 0.9375,0 0.96875,1.125 0.96875,1.296875 z m 0,0"
             id="path54" />
        </g>
        <g
           id="g56"
           transform="translate(15.256231,11.225)">
          <path
             d="m 2.09375,1.28125 c -0.515625,0 -0.609375,0 -0.609375,-0.359375 v -1.3125 c 0.375,0.40625 0.78125,0.46875 1.046875,0.46875 1,0 1.890625,-0.78125 1.890625,-1.796875 0,-1 -0.8125,-1.796875 -1.78125,-1.796875 -0.3125,0 -0.765625,0.078125 -1.171875,0.5 v -0.5 l -1.1875,0.09375 v 0.265625 c 0.5625,0 0.609375,0.046875 0.609375,0.375 v 3.703125 c 0,0.359375 -0.109375,0.359375 -0.609375,0.359375 v 0.265625 c 0.34375,-0.03125 0.6875,-0.03125 0.90625,-0.03125 0.234375,0 0.5625,0 0.90625,0.03125 z m -0.609375,-3.9375 c 0.1875,-0.3125 0.59375,-0.609375 1.09375,-0.609375 0.609375,0 1.125,0.671875 1.125,1.546875 0,0.90625 -0.578125,1.578125 -1.21875,1.578125 -0.28125,0 -0.640625,-0.125 -0.90625,-0.515625 -0.09375,-0.140625 -0.09375,-0.15625 -0.09375,-0.296875 z m 0,0"
             id="path56" />
        </g>
      </g>
      <g
         fill="#000000"
         fill-opacity="1"
         id="g59"
         transform="matrix(0.352778 0 0 0.352778 -0.835378 -0.703395)">
        <g
           id="g58"
           transform="translate(20.200085,11.225)">
          <path
             d="m 3.984375,-1.703125 c 0,-0.984375 -0.828125,-1.84375 -1.875,-1.84375 -1.046875,0 -1.875,0.859375 -1.875,1.84375 0,1 0.859375,1.78125 1.875,1.78125 1.03125,0 1.875,-0.78125 1.875,-1.78125 z m -1.875,1.53125 C 1.6875,-0.171875 1.34375,-0.375 1.171875,-0.65625 0.96875,-0.984375 0.953125,-1.375 0.953125,-1.765625 c 0,-0.3125 0,-0.78125 0.234375,-1.125 0.21875,-0.28125 0.546875,-0.4375 0.921875,-0.4375 0.421875,0 0.765625,0.203125 0.9375,0.46875 0.21875,0.34375 0.234375,0.765625 0.234375,1.09375 0,0.359375 -0.015625,0.796875 -0.25,1.140625 -0.203125,0.3125 -0.5625,0.453125 -0.921875,0.453125 z m 0,0"
             id="path58" />
        </g>
      </g>
      <g
         fill="#000000"
         fill-opacity="1"
         id="g62"
         transform="matrix(0.352778 0 0 0.352778 -0.835378 -0.703395)">
        <g
           id="g60"
           transform="translate(24.426628,11.225)">
          <path
             d="m 2.84375,-3.34375 c 0,-0.125 0,-0.203125 -0.109375,-0.203125 -0.046875,0 -0.0625,0 -0.1875,0.125 -0.015625,0 -0.09375,0.078125 -0.109375,0.078125 -0.015625,0 -0.03125,0 -0.078125,-0.03125 C 2.234375,-3.46875 2,-3.546875 1.640625,-3.546875 c -1.109375,0 -1.359375,0.59375 -1.359375,0.984375 0,0.390625 0.296875,0.625 0.3125,0.65625 0.328125,0.234375 0.5,0.265625 1.046875,0.359375 0.375,0.078125 0.984375,0.1875 0.984375,0.71875 0,0.3125 -0.203125,0.6875 -0.9375,0.6875 -0.8125,0 -1.046875,-0.625 -1.140625,-1.046875 C 0.515625,-1.296875 0.5,-1.328125 0.40625,-1.328125 c -0.125,0 -0.125,0.0625 -0.125,0.21875 V -0.125 c 0,0.125 0,0.203125 0.09375,0.203125 0.0625,0 0.0625,0 0.203125,-0.15625 C 0.625,-0.125 0.703125,-0.21875 0.75,-0.265625 c 0.359375,0.328125 0.734375,0.34375 0.9375,0.34375 1.015625,0 1.359375,-0.578125 1.359375,-1.109375 0,-0.375 -0.21875,-0.9375 -1.171875,-1.109375 -0.0625,-0.015625 -0.515625,-0.09375 -0.546875,-0.09375 -0.25,-0.0625 -0.625,-0.234375 -0.625,-0.546875 0,-0.234375 0.1875,-0.578125 0.9375,-0.578125 0.890625,0 0.9375,0.65625 0.953125,0.875 0,0.0625 0.0625,0.09375 0.109375,0.09375 0.140625,0 0.140625,-0.0625 0.140625,-0.203125 z m 0,0"
             id="path59" />
        </g>
        <g
           id="g61"
           transform="translate(27.766897,11.225)">
          <path
             d="m 1.546875,-4.90625 c 0,-0.234375 -0.171875,-0.453125 -0.4375,-0.453125 -0.234375,0 -0.4375,0.1875 -0.4375,0.4375 0,0.28125 0.234375,0.453125 0.4375,0.453125 0.28125,0 0.4375,-0.234375 0.4375,-0.4375 z m -1.1875,1.484375 v 0.265625 c 0.515625,0 0.578125,0.046875 0.578125,0.4375 V -0.625 c 0,0.359375 -0.09375,0.359375 -0.609375,0.359375 V 0 c 0.3125,-0.03125 0.765625,-0.03125 0.890625,-0.03125 0.09375,0 0.578125,0 0.859375,0.03125 v -0.265625 c -0.53125,0 -0.5625,-0.03125 -0.5625,-0.34375 v -2.90625 z m 0,0"
             id="path60" />
        </g>
      </g>
      <g
         fill="#000000"
         fill-opacity="1"
         id="g67"
         transform="matrix(0.352778 0 0 0.352778 -0.835378 -0.703395)">
        <g
           id="g63"
           transform="translate(30.126844,11.225)">
          <path
             d="m 1.484375,-3.171875 h 1.1875 V -3.4375 h -1.1875 v -1.46875 h -0.25 c 0,0.734375 -0.328125,1.484375 -1.078125,1.515625 v 0.21875 H 0.875 V -1 c 0,0.9375 0.71875,1.078125 1.078125,1.078125 C 2.5,0.078125 2.8125,-0.390625 2.8125,-1 v -0.4375 h -0.25 v 0.421875 c 0,0.546875 -0.25,0.84375 -0.546875,0.84375 -0.53125,0 -0.53125,-0.6875 -0.53125,-0.8125 z m 0,0"
             id="path63" />
        </g>
        <g
           id="g64"
           transform="translate(33.42009,11.225)">
          <path
             d="m 1.546875,-4.90625 c 0,-0.234375 -0.171875,-0.453125 -0.4375,-0.453125 -0.234375,0 -0.4375,0.1875 -0.4375,0.4375 0,0.28125 0.234375,0.453125 0.4375,0.453125 0.28125,0 0.4375,-0.234375 0.4375,-0.4375 z m -1.1875,1.484375 v 0.265625 c 0.515625,0 0.578125,0.046875 0.578125,0.4375 V -0.625 c 0,0.359375 -0.09375,0.359375 -0.609375,0.359375 V 0 c 0.3125,-0.03125 0.765625,-0.03125 0.890625,-0.03125 0.09375,0 0.578125,0 0.859375,0.03125 v -0.265625 c -0.53125,0 -0.5625,-0.03125 -0.5625,-0.34375 v -2.90625 z m 0,0"
             id="path64" />
        </g>
        <g
           id="g65"
           transform="translate(35.772064,11.225)">
          <path
             d="m 3.984375,-1.703125 c 0,-0.984375 -0.828125,-1.84375 -1.875,-1.84375 -1.046875,0 -1.875,0.859375 -1.875,1.84375 0,1 0.859375,1.78125 1.875,1.78125 1.03125,0 1.875,-0.78125 1.875,-1.78125 z m -1.875,1.53125 C 1.6875,-0.171875 1.34375,-0.375 1.171875,-0.65625 0.96875,-0.984375 0.953125,-1.375 0.953125,-1.765625 c 0,-0.3125 0,-0.78125 0.234375,-1.125 0.21875,-0.28125 0.546875,-0.4375 0.921875,-0.4375 0.421875,0 0.765625,0.203125 0.9375,0.46875 0.21875,0.34375 0.234375,0.765625 0.234375,1.09375 0,0.359375 -0.015625,0.796875 -0.25,1.140625 -0.203125,0.3125 -0.5625,0.453125 -0.921875,0.453125 z m 0,0"
             id="path65" />
        </g>
        <g
           id="g66"
           transform="translate(40.00658,11.225)">
          <path
             d="m 3.875,-2.421875 c 0,-0.65625 -0.3125,-1.09375 -1.140625,-1.09375 -0.796875,0 -1.15625,0.578125 -1.25,0.765625 v -0.765625 l -1.15625,0.09375 v 0.265625 c 0.546875,0 0.609375,0.046875 0.609375,0.4375 V -0.625 c 0,0.359375 -0.09375,0.359375 -0.609375,0.359375 V 0 c 0.34375,-0.03125 0.6875,-0.03125 0.90625,-0.03125 0.234375,0 0.5625,0 0.90625,0.03125 v -0.265625 c -0.5,0 -0.609375,0 -0.609375,-0.359375 v -1.4375 c 0,-0.84375 0.640625,-1.234375 1.125,-1.234375 0.484375,0 0.609375,0.34375 0.609375,0.84375 V -0.625 c 0,0.359375 -0.09375,0.359375 -0.609375,0.359375 V 0 C 3,-0.03125 3.359375,-0.03125 3.5625,-0.03125 c 0.234375,0 0.578125,0 0.921875,0.03125 v -0.265625 c -0.515625,0 -0.609375,0 -0.609375,-0.359375 z m 0,0"
             id="path66" />
        </g>
      </g>
    </g>
  </g>
</svg>
