<?xml version="1.0" encoding="UTF-8" standalone="no"?>
<!-- Created with Inkscape (http://www.inkscape.org/) -->

<svg
   width="12.49328mm"
   height="4.0976048mm"
   viewBox="0 0 12.49328 4.0976048"
   version="1.1"
   id="svg1"
   xmlns:inkscape="http://www.inkscape.org/namespaces/inkscape"
   xmlns:sodipodi="http://sodipodi.sourceforge.net/DTD/sodipodi-0.dtd"
   xmlns="http://www.w3.org/2000/svg"
   xmlns:svg="http://www.w3.org/2000/svg">
  <sodipodi:namedview
     id="namedview1"
     pagecolor="#505050"
     bordercolor="#ffffff"
     borderopacity="1"
     inkscape:showpageshadow="0"
     inkscape:pageopacity="0"
     inkscape:pagecheckerboard="1"
     inkscape:deskcolor="#505050"
     inkscape:document-units="mm" />
  <defs
     id="defs1" />
  <g
     inkscape:label="Layer 1"
     inkscape:groupmode="layer"
     id="layer1"
     transform="translate(-147.10833,-75.670834)">
    <g
       inkscape:label=""
       transform="translate(147.10833,75.670833)"
       id="g61"><g
   fill="#000000"
   fill-opacity="1"
   id="g5"
   transform="matrix(0.352778,0,0,0.352778,-0.813329,-0.64598)">
    <g
   id="g4"
   transform="translate(1.993,11.087)">
      <path
   d="m 0.953125,-0.640625 c -0.03125,0.15625 -0.09375,0.40625 -0.09375,0.46875 0,0.1875 0.15625,0.296875 0.3125,0.296875 0.140625,0 0.328125,-0.09375 0.40625,-0.3125 0.03125,-0.046875 0.390625,-1.53125 0.4375,-1.71875 0.09375,-0.359375 0.28125,-1.125 0.34375,-1.421875 C 2.40625,-3.46875 2.71875,-3.984375 2.984375,-4.21875 3.0625,-4.296875 3.375,-4.578125 3.84375,-4.578125 c 0.296875,0 0.453125,0.125 0.46875,0.125 -0.328125,0.0625 -0.578125,0.3125 -0.578125,0.609375 0,0.171875 0.125,0.375 0.421875,0.375 0.296875,0 0.59375,-0.25 0.59375,-0.640625 0,-0.390625 -0.34375,-0.71875 -0.90625,-0.71875 -0.703125,0 -1.1875,0.546875 -1.390625,0.84375 -0.09375,-0.484375 -0.484375,-0.84375 -0.984375,-0.84375 -0.515625,0 -0.71875,0.4375 -0.8125,0.625 -0.203125,0.375 -0.34375,1.03125 -0.34375,1.0625 0,0.109375 0.109375,0.109375 0.140625,0.109375 0.109375,0 0.109375,-0.015625 0.171875,-0.25 0.1875,-0.78125 0.40625,-1.296875 0.796875,-1.296875 0.1875,0 0.34375,0.078125 0.34375,0.5 0,0.234375 -0.03125,0.34375 -0.171875,0.921875 z m 0,0"
   id="path4" />

    </g>

  </g>

  <g
   fill="#000000"
   fill-opacity="1"
   id="g28"
   transform="matrix(0.352778,0,0,0.352778,-0.813329,-0.64598)">
    <g
   id="g27"
   transform="translate(10.248,11.087)">
      <path
   d="m 7.875,-0.34375 c -0.046875,0 -0.21875,0.015625 -0.25,0.015625 -0.859375,0 -1.4375,-0.84375 -1.8125,-1.421875 C 5.703125,-1.9375 5.40625,-2.375 5.296875,-2.5625 5.546875,-3.15625 6.28125,-4.5 7.578125,-4.5 7.65625,-4.5 7.75,-4.5 7.875,-4.46875 7.875,-4.75 7.859375,-4.765625 7.84375,-4.78125 7.765625,-4.8125 7.609375,-4.828125 7.5,-4.828125 c -1.375,0 -2.1875,1.34375 -2.453125,1.890625 -0.4375,-0.671875 -0.59375,-0.90625 -0.984375,-1.25 -0.671875,-0.578125 -1.265625,-0.640625 -1.546875,-0.640625 -1.203125,0 -1.90625,1.234375 -1.90625,2.484375 0,1.21875 0.671875,2.46875 1.875,2.46875 1.390625,0 2.1875,-1.328125 2.453125,-1.875 0.4375,0.65625 0.59375,0.90625 1,1.234375 C 6.59375,0.0625 7.203125,0.125 7.46875,0.125 7.609375,0.125 7.78125,0.09375 7.875,0.078125 Z M 4.703125,-2.140625 c -0.265625,0.59375 -1,1.9375 -2.296875,1.9375 -1.046875,0 -1.5625,-1.15625 -1.5625,-2.140625 0,-1.078125 0.625,-2.03125 1.515625,-2.03125 0.875,0 1.453125,0.859375 1.8125,1.421875 0.109375,0.1875 0.40625,0.625 0.53125,0.8125 z m 0,0"
   id="path8" />

    </g>

  </g>

  <g
   fill="#000000"
   fill-opacity="1"
   id="g47"
   transform="matrix(0.352778,0,0,0.352778,-0.813329,-0.64598)">
    <g
   id="g46"
   transform="translate(21.763,11.087)">
      <path
   d="M 5.328125,-3.015625 C 5.375,-3.21875 5.40625,-3.359375 5.40625,-3.65625 c 0,-0.703125 -0.4375,-1.171875 -1.25,-1.171875 -0.859375,0 -1.4375,0.578125 -1.6875,0.953125 -0.0625,-0.625 -0.515625,-0.953125 -1,-0.953125 -0.515625,0 -0.71875,0.4375 -0.8125,0.625 -0.203125,0.375 -0.34375,1.03125 -0.34375,1.0625 0,0.109375 0.109375,0.109375 0.140625,0.109375 0.109375,0 0.109375,-0.015625 0.171875,-0.25 0.1875,-0.78125 0.40625,-1.296875 0.796875,-1.296875 0.1875,0 0.34375,0.078125 0.34375,0.5 0,0.234375 -0.03125,0.34375 -0.171875,0.921875 l -0.640625,2.515625 c -0.03125,0.15625 -0.09375,0.40625 -0.09375,0.46875 0,0.1875 0.15625,0.296875 0.3125,0.296875 C 1.3125,0.125 1.5,0.03125 1.578125,-0.1875 1.59375,-0.203125 1.71875,-0.71875 1.78125,-1 l 0.25,-0.96875 c 0.0625,-0.25 0.125,-0.484375 0.1875,-0.734375 0.015625,-0.0625 0.109375,-0.421875 0.109375,-0.5 0.03125,-0.09375 0.375,-0.703125 0.75,-1 0.234375,-0.171875 0.578125,-0.375 1.046875,-0.375 0.46875,0 0.59375,0.375 0.59375,0.765625 0,0.046875 0,0.25 -0.109375,0.6875 l -1.25,5.015625 c -0.03125,0.125 -0.03125,0.15625 -0.03125,0.171875 0,0.15625 0.125,0.296875 0.296875,0.296875 0.34375,0 0.421875,-0.3125 0.453125,-0.4375 z m 0,0"
   id="path39" />

    </g>

  </g>

  <g
   fill="#000000"
   fill-opacity="1"
   id="g49"
   transform="matrix(0.352778,0,0,0.352778,-0.813329,-0.64598)">
    <g
   id="g48"
   transform="translate(27.570999,7.1279998)">
      <path
   d="m 5.5625,-1.8125 c 0.140625,0 0.3125,0 0.3125,-0.171875 0,-0.1875 -0.171875,-0.1875 -0.3125,-0.1875 H 1 c -0.125,0 -0.296875,0 -0.296875,0.1875 C 0.703125,-1.8125 0.875,-1.8125 1,-1.8125 Z m 0,0"
   id="path47" />

    </g>

  </g>

  <g
   fill="#000000"
   fill-opacity="1"
   id="g60"
   transform="matrix(0.352778,0,0,0.352778,-0.813329,-0.64598)">
    <g
   id="g50"
   transform="translate(34.157001,7.1279998)">
      <path
   d="m 2.5,-5.078125 c 0,-0.21875 -0.015625,-0.21875 -0.234375,-0.21875 -0.328125,0.3125 -0.75,0.5 -1.5,0.5 v 0.265625 c 0.21875,0 0.640625,0 1.109375,-0.203125 v 4.078125 c 0,0.296875 -0.03125,0.390625 -0.78125,0.390625 H 0.8125 V 0 c 0.328125,-0.03125 1.015625,-0.03125 1.375,-0.03125 0.359375,0 1.046875,0 1.375,0.03125 V -0.265625 H 3.28125 c -0.75,0 -0.78125,-0.09375 -0.78125,-0.390625 z m 0,0"
   id="path49" />

    </g>

  </g>

</g>
  </g>
</svg>
