<?xml version="1.0" encoding="UTF-8" standalone="no"?>
<!-- Created with Inkscape (http://www.inkscape.org/) -->

<svg
   width="11.910182mm"
   height="4.0976048mm"
   viewBox="0 0 11.910182 4.0976048"
   version="1.1"
   id="svg1"
   sodipodi:docname="N-propto-eta-cubed.svg"
   inkscape:export-filename="N-propto-eta-cubed.png"
   inkscape:export-xdpi="639.78998"
   inkscape:export-ydpi="639.78998"
   inkscape:version="1.3.2 (091e20e, 2023-11-25, custom)"
   xmlns:inkscape="http://www.inkscape.org/namespaces/inkscape"
   xmlns:sodipodi="http://sodipodi.sourceforge.net/DTD/sodipodi-0.dtd"
   xmlns="http://www.w3.org/2000/svg"
   xmlns:svg="http://www.w3.org/2000/svg">
  <sodipodi:namedview
     id="namedview1"
     pagecolor="#505050"
     bordercolor="#ffffff"
     borderopacity="1"
     inkscape:showpageshadow="0"
     inkscape:pageopacity="0"
     inkscape:pagecheckerboard="1"
     inkscape:deskcolor="#505050"
     inkscape:document-units="mm"
     inkscape:zoom="10.133698"
     inkscape:cx="-0.049340332"
     inkscape:cy="-0.049340332"
     inkscape:window-width="1920"
     inkscape:window-height="1046"
     inkscape:window-x="-11"
     inkscape:window-y="-11"
     inkscape:window-maximized="1"
     inkscape:current-layer="layer1" />
  <defs
     id="defs1" />
  <g
     inkscape:label="Layer 1"
     inkscape:groupmode="layer"
     id="layer1"
     transform="translate(-155.215,-77.433201)">
    <g
       inkscape:label=""
       transform="translate(155.215,77.4332)"
       id="g2">
      <g
         fill="#000000"
         fill-opacity="1"
         id="g1"
         transform="matrix(0.352778,0,0,0.352778,-0.851914,-0.64598)">
        <g
           id="use4"
           transform="translate(1.993,11.087)">
          <path
             d="m 8.25,-6.296875 c 0.109375,-0.4375 0.296875,-0.78125 1.171875,-0.8125 0.0625,0 0.1875,-0.015625 0.1875,-0.21875 0,-0.015625 0,-0.125 -0.140625,-0.125 -0.359375,0 -0.75,0.03125 -1.109375,0.03125 -0.359375,0 -0.75,-0.03125 -1.109375,-0.03125 -0.0625,0 -0.1875,0 -0.1875,0.21875 0,0.125 0.109375,0.125 0.1875,0.125 C 7.875,-7.09375 8,-6.875 8,-6.625 8,-6.59375 7.96875,-6.4375 7.96875,-6.40625 l -1.234375,4.859375 -2.40625,-5.6875 C 4.25,-7.4375 4.234375,-7.453125 3.984375,-7.453125 h -1.46875 c -0.21875,0 -0.3125,0 -0.3125,0.21875 0,0.125 0.09375,0.125 0.3125,0.125 0.046875,0 0.734375,0 0.734375,0.09375 L 1.78125,-1.15625 C 1.671875,-0.71875 1.5,-0.375 0.609375,-0.34375 c -0.0625,0 -0.1875,0.015625 -0.1875,0.21875 0,0.078125 0.0625,0.125 0.140625,0.125 0.359375,0 0.734375,-0.03125 1.09375,-0.03125 0.375,0 0.765625,0.03125 1.125,0.03125 0.046875,0 0.203125,0 0.203125,-0.21875 0,-0.109375 -0.109375,-0.125 -0.21875,-0.125 -0.640625,-0.015625 -0.71875,-0.25 -0.71875,-0.46875 0,-0.078125 0,-0.140625 0.03125,-0.25 l 1.4375,-5.765625 C 3.5625,-6.765625 3.5625,-6.734375 3.625,-6.625 l 2.71875,6.421875 C 6.40625,-0.015625 6.453125,0 6.546875,0 6.65625,0 6.65625,-0.03125 6.71875,-0.234375 Z m 0,0"
             id="path1" />
        </g>
      </g>
      <g
         fill="#000000"
         fill-opacity="1"
         id="g6"
         transform="matrix(0.352778,0,0,0.352778,-0.851914,-0.64598)">
        <g
           id="use5"
           transform="translate(14.977,11.087)">
          <path
             d="m 7.875,-0.34375 c -0.046875,0 -0.21875,0.015625 -0.25,0.015625 -0.859375,0 -1.4375,-0.84375 -1.8125,-1.421875 C 5.703125,-1.9375 5.40625,-2.375 5.296875,-2.5625 5.546875,-3.15625 6.28125,-4.5 7.578125,-4.5 7.65625,-4.5 7.75,-4.5 7.875,-4.46875 7.875,-4.75 7.859375,-4.765625 7.84375,-4.78125 7.765625,-4.8125 7.609375,-4.828125 7.5,-4.828125 c -1.375,0 -2.1875,1.34375 -2.453125,1.890625 -0.4375,-0.671875 -0.59375,-0.90625 -0.984375,-1.25 -0.671875,-0.578125 -1.265625,-0.640625 -1.546875,-0.640625 -1.203125,0 -1.90625,1.234375 -1.90625,2.484375 0,1.21875 0.671875,2.46875 1.875,2.46875 1.390625,0 2.1875,-1.328125 2.453125,-1.875 0.4375,0.65625 0.59375,0.90625 1,1.234375 C 6.59375,0.0625 7.203125,0.125 7.46875,0.125 7.609375,0.125 7.78125,0.09375 7.875,0.078125 Z M 4.703125,-2.140625 c -0.265625,0.59375 -1,1.9375 -2.296875,1.9375 -1.046875,0 -1.5625,-1.15625 -1.5625,-2.140625 0,-1.078125 0.625,-2.03125 1.515625,-2.03125 0.875,0 1.453125,0.859375 1.8125,1.421875 0.109375,0.1875 0.40625,0.625 0.53125,0.8125 z m 0,0"
             id="path9" />
        </g>
      </g>
      <g
         fill="#000000"
         fill-opacity="1"
         id="g7"
         transform="matrix(0.352778,0,0,0.352778,-0.851914,-0.64598)">
        <g
           id="use6"
           transform="translate(26.492001,11.087)">
          <path
             d="M 5.328125,-3.015625 C 5.375,-3.21875 5.40625,-3.359375 5.40625,-3.65625 c 0,-0.703125 -0.4375,-1.171875 -1.25,-1.171875 -0.859375,0 -1.4375,0.578125 -1.6875,0.953125 -0.0625,-0.625 -0.515625,-0.953125 -1,-0.953125 -0.515625,0 -0.71875,0.4375 -0.8125,0.625 -0.203125,0.375 -0.34375,1.03125 -0.34375,1.0625 0,0.109375 0.109375,0.109375 0.140625,0.109375 0.109375,0 0.109375,-0.015625 0.171875,-0.25 0.1875,-0.78125 0.40625,-1.296875 0.796875,-1.296875 0.1875,0 0.34375,0.078125 0.34375,0.5 0,0.234375 -0.03125,0.34375 -0.171875,0.921875 l -0.640625,2.515625 c -0.03125,0.15625 -0.09375,0.40625 -0.09375,0.46875 0,0.1875 0.15625,0.296875 0.3125,0.296875 C 1.3125,0.125 1.5,0.03125 1.578125,-0.1875 1.59375,-0.203125 1.71875,-0.71875 1.78125,-1 l 0.25,-0.96875 c 0.0625,-0.25 0.125,-0.484375 0.1875,-0.734375 0.015625,-0.0625 0.109375,-0.421875 0.109375,-0.5 0.03125,-0.09375 0.375,-0.703125 0.75,-1 0.234375,-0.171875 0.578125,-0.375 1.046875,-0.375 0.46875,0 0.59375,0.375 0.59375,0.765625 0,0.046875 0,0.25 -0.109375,0.6875 l -1.25,5.015625 c -0.03125,0.125 -0.03125,0.15625 -0.03125,0.171875 0,0.15625 0.125,0.296875 0.296875,0.296875 0.34375,0 0.421875,-0.3125 0.453125,-0.4375 z m 0,0"
             id="path10" />
        </g>
      </g>
      <g
         fill="#000000"
         fill-opacity="1"
         id="g8"
         transform="matrix(0.352778,0,0,0.352778,-0.851914,-0.64598)">
        <g
           id="use7"
           transform="translate(32.300999,7.1279998)">
          <path
             d="m 2.015625,-2.65625 c 0.625,0 1.03125,0.453125 1.03125,1.296875 0,1 -0.5625,1.28125 -0.984375,1.28125 -0.4375,0 -1.046875,-0.15625 -1.328125,-0.578125 0.296875,0 0.5,-0.1875 0.5,-0.4375 0,-0.265625 -0.1875,-0.4375 -0.453125,-0.4375 -0.203125,0 -0.4375,0.125 -0.4375,0.453125 0,0.75 0.8125,1.25 1.734375,1.25 C 3.125,0.171875 3.875,-0.5625 3.875,-1.359375 3.875,-2.03125 3.34375,-2.625 2.53125,-2.8125 c 0.625,-0.21875 1.109375,-0.75 1.109375,-1.390625 0,-0.640625 -0.71875,-1.09375 -1.546875,-1.09375 -0.859375,0 -1.5,0.453125 -1.5,1.0625 0,0.296875 0.1875,0.421875 0.40625,0.421875 0.25,0 0.40625,-0.171875 0.40625,-0.40625 0,-0.296875 -0.265625,-0.40625 -0.4375,-0.40625 0.34375,-0.4375 0.953125,-0.46875 1.09375,-0.46875 0.203125,0 0.8125,0.0625 0.8125,0.890625 0,0.546875 -0.234375,0.890625 -0.34375,1.015625 -0.234375,0.25 -0.421875,0.265625 -0.90625,0.296875 -0.15625,0 -0.21875,0.015625 -0.21875,0.125 0,0.109375 0.078125,0.109375 0.21875,0.109375 z m 0,0"
             id="path11" />
        </g>
      </g>
    </g>
  </g>
</svg>
